<svg id="Layer_1" data-name="Layer 1" xmlns="http://www.w3.org/2000/svg" xmlns:xlink="http://www.w3.org/1999/xlink" viewBox="0 0 16 16"><defs><style>.cls-1{fill:#090a17;}.cls-2{fill:url(#linear-gradient);}.cls-3{fill:url(#linear-gradient-2);}.cls-4{fill:#fffeff;}</style><linearGradient id="linear-gradient" x1="-121.23" y1="-58.45" x2="-126.09" y2="-72.04" gradientUnits="userSpaceOnUse"><stop offset="0.37" stop-color="#49abb2"/><stop offset="1" stop-color="#fff"/></linearGradient><linearGradient id="linear-gradient-2" x1="10.64" y1="17.04" x2="10.64" y2="7.49" xlink:href="#linear-gradient"/></defs><rect class="cls-1" width="16" height="16" rx="8"/><path class="cls-2" d="M-123.75-74.14c.24,0,1.39,0,1.63,0a.28.28,0,0,1,.29.28.29.29,0,0,1-.32.25h-1.67a4.37,4.37,0,0,0-1.85.54h0l-.08,0a3.73,3.73,0,0,0-1.31,1.28,4.36,4.36,0,0,0-.56,1.48c0,.12,0,.23-.06.36h.66a1.06,1.06,0,0,1,.79.33.76.76,0,0,1-.61,1.26.25.25,0,0,1-.25-.25.25.25,0,0,1,.23-.27.35.35,0,0,0,.24-.1.27.27,0,0,0,0-.27.23.23,0,0,0-.22-.16h-.91v.28a3.73,3.73,0,0,1,0,.47.86.86,0,0,1-.06.23l-.42,1.13-.26.69a.17.17,0,0,1,0,0h1a.25.25,0,0,1,.25.33l-.19.76v0h.58a.26.26,0,0,1,.24.16.24.24,0,0,1,0,.28.25.25,0,0,1-.2.09h-.54c0,.1.08.2.13.28a.74.74,0,0,1,.08.48c0,.23,0,.46,0,.69a.26.26,0,0,0,.28.27l.59-.05,1-.07a3.55,3.55,0,0,0,.46,0,1.41,1.41,0,0,0,1-.64.27.27,0,0,1,.37-.09.26.26,0,0,1,.08.38,2,2,0,0,1-1,.79l-.5.13c0,.14,0,.29,0,.44s0,0,0,.22a.25.25,0,0,1-.23.29.27.27,0,0,1-.3-.24c0-.34,0-.32-.07-.66v0l-.32,0-1,.08a.8.8,0,0,1-.85-.84c0-.23,0-.46,0-.7a.42.42,0,0,0-.07-.29L-128-65a.32.32,0,0,1,0-.27c.06-.25.12-.49.18-.75h-.09c-.21,0-.42,0-.64,0a.55.55,0,0,1-.36-.92l.45-1.21a2,2,0,0,1,.15-.47,1,1,0,0,0,0-.3,9,9,0,0,1,0-1.16,5,5,0,0,1,.55-1.73,4.4,4.4,0,0,1,1-1.24,5.11,5.11,0,0,1,.71-.51h0a5.35,5.35,0,0,1,2.2-.62Z" transform="translate(131.5 76.5)"/><rect class="cls-3" x="9.89" y="5.29" width="1.5" height="9.29"/><path class="cls-4" d="M-120.88-75.25a1.38,1.38,0,0,0-1.36,1.38,1.38,1.38,0,0,0,1.41,1.37,1.39,1.39,0,0,0,1.35-1.37A1.37,1.37,0,0,0-120.88-75.25Zm.08,2a.63.63,0,0,1-.67-.75.63.63,0,0,1,.55-.48.61.61,0,0,1,.67.56A.62.62,0,0,1-120.8-73.26Z" transform="translate(131.5 76.5)"/></svg>