<svg id="Layer_1" data-name="Layer 1" xmlns="http://www.w3.org/2000/svg" width="40" height="41" viewBox="0 0 33.1 34.83"><defs><style>.cls-1{fill:#fff;}</style></defs><path class="cls-1" d="M-229.21,103.42a6,6,0,0,1,5.41-1.48,3.57,3.57,0,0,1,2.89,2.31,15.14,15.14,0,0,1,.63,2.49.73.73,0,0,0,.43.61,3.58,3.58,0,0,1,2.24,3.34c0,1.06,0,2.11,0,3.17a2,2,0,0,1-2,2.06c-.73,0-1.47,0-2.2,0a1,1,0,0,0-.57.23,2.08,2.08,0,0,1-2.93,0,2.07,2.07,0,0,1,0-2.9,2.11,2.11,0,0,1,2.93,0,1,1,0,0,0,.57.23c.55,0,1.09,0,1.66,0,0-1,0-2,0-3a1,1,0,0,0-.66-.82c-.27-.12-.55-.22-.83-.33a1.32,1.32,0,0,1-.93-1.3,11.27,11.27,0,0,0-.16-1.75,2.05,2.05,0,0,0-2.47-1.93,3.23,3.23,0,0,0-2.16.78,1.67,1.67,0,0,0-.59,1.31q0,8.7,0,17.41c0,.11,0,.23,0,.37h5.33c0-.56.14-1.08-.34-1.6a2,2,0,0,1,.22-2.81,2.06,2.06,0,0,1,2.83.07,2,2,0,0,1,.09,2.83,1,1,0,0,0-.31.83c0,.37,0,.73,0,1.1a2.06,2.06,0,0,1-2.12,2.09h-5.72v5.46a4.16,4.16,0,0,1-4.31,4.49,11,11,0,0,1-2.29-.16,4.28,4.28,0,0,1-3.66-3.76,10,10,0,0,1-.12-1.33,1.23,1.23,0,0,1,1.19-1.36,1.24,1.24,0,0,1,1.29,1.28c0,.43.06.86.13,1.28a1.55,1.55,0,0,0,1.26,1.34,10.24,10.24,0,0,0,2.4.19c1.11-.06,1.59-.67,1.59-1.77v-4c-.81,0-1.59,0-2.36,0-.1,0-.2.11-.28.19a2.07,2.07,0,0,1-3,0,2.08,2.08,0,0,1,0-2.93,2.06,2.06,0,0,1,2.92,0,.69.69,0,0,0,.32.2h2.32V113.46c-.8,0-1.59,0-2.38,0-.09,0-.19.13-.27.21a2.08,2.08,0,0,1-2.92,0,2.08,2.08,0,0,1,0-2.93,2.09,2.09,0,0,1,2.93,0,.77.77,0,0,0,.5.2c.7,0,1.4,0,2.15,0v-.46c0-1.3,0-2.61,0-3.91a1.87,1.87,0,0,0-1.05-1.82,3.75,3.75,0,0,0-2.84-.33,1.53,1.53,0,0,0-1.14,1.19,21.71,21.71,0,0,0-.36,2.42,1.31,1.31,0,0,1-.88,1.25,1.2,1.2,0,0,1-1.58-1,7.41,7.41,0,0,1,1.06-4.61,4.28,4.28,0,0,1,4-1.83A5.66,5.66,0,0,1-229.21,103.42Z" transform="translate(245.74 -101.83)"/><path class="cls-1" d="M-240,120.9v-1.13a2.1,2.1,0,0,1,2.2-2.18c.21,0,.42,0,.63,0a1.76,1.76,0,0,0,1.38-.42,2,2,0,0,1,2.72.27,2.09,2.09,0,0,1,0,2.79,2.06,2.06,0,0,1-2.73.29,1.73,1.73,0,0,0-1.7-.39,7.69,7.69,0,0,0,0,.83,2.18,2.18,0,0,1-2.42,2.44c-.57-.05-1.15,0-1.72,0-.26,0-.38.08-.4.34a5.68,5.68,0,0,0,1.5,4.76,1.22,1.22,0,0,1,.31,1.46,1.14,1.14,0,0,1-1.2.7,1.76,1.76,0,0,1-.85-.4,7.49,7.49,0,0,1-2.17-4.45,8.07,8.07,0,0,1,.29-3.87.8.8,0,0,0-.08-.6,11.72,11.72,0,0,1-1.52-5.25,7.67,7.67,0,0,1,3.17-6.45,1.47,1.47,0,0,1,.9-.26,1.07,1.07,0,0,1,1,.78,1.17,1.17,0,0,1-.24,1.27c-.17.18-.37.33-.55.5a5.06,5.06,0,0,0-1.75,4.81,9.33,9.33,0,0,0,1.46,3.92.63.63,0,0,0,.43.24C-240.89,120.92-240.47,120.9-240,120.9Z" transform="translate(245.74 -101.83)"/><path class="cls-1" d="M-212.64,115.44a11.72,11.72,0,0,1-1.51,5.78,1,1,0,0,0-.08.88,8,8,0,0,1-3.29,9.2,14.52,14.52,0,0,1-2.41,1c-.21.08-.32.14-.37.38-.48,2.56-1.73,3.68-4.35,4a1.25,1.25,0,0,1-1.48-1.11,1.24,1.24,0,0,1,1.2-1.36c1.75-.22,2.25-.75,2.36-2.51,0-.11,0-.23,0-.35a1.31,1.31,0,0,1,1.17-1.25,10.46,10.46,0,0,0,2.09-.6,4.79,4.79,0,0,0,2.92-4.3,6.11,6.11,0,0,0-.42-3,1.56,1.56,0,0,1,.18-1.58,8.74,8.74,0,0,0,1.43-5.54,5.15,5.15,0,0,0-.15-.68,1.23,1.23,0,0,1,.86-1.54,1.2,1.2,0,0,1,1.52.88C-212.79,114.38-212.71,115.09-212.64,115.44Z" 
transform="translate(245.74 -101.83)"/></svg>