<svg id="visual" viewBox="0 0 1920 1080" width="1920" height="1080" xmlns="http://www.w3.org/2000/svg" xmlns:xlink="http://www.w3.org/1999/xlink" version="1.1"><rect x="0" y="0" width="1920" height="1080" fill="#fff"></rect><path d="M0 676L53.3 662.3C106.7 648.7 213.3 621.3 320 639.3C426.7 657.3 533.3 720.7 640 708.3C746.7 696 853.3 608 960 582.5C1066.7 557 1173.3 594 1280 623.8C1386.7 653.7 1493.3 676.3 1600 664C1706.7 651.7 1813.3 604.3 1866.7 580.7L1920 557L1920 1081L1866.7 1081C1813.3 1081 1706.7 1081 1600 1081C1493.3 1081 1386.7 1081 1280 1081C1173.3 1081 1066.7 1081 960 1081C853.3 1081 746.7 1081 640 1081C533.3 1081 426.7 1081 320 1081C213.3 1081 106.7 1081 53.3 1081L0 1081Z" fill="#0066FF" stroke-linecap="round" stroke-linejoin="miter"></path></svg>