<?xml version="1.0" standalone="no"?>
<svg xmlns:xlink="http://www.w3.org/1999/xlink" preserveAspectRatio="none" id="wave" style="transform:rotate(180deg); transition: 0.3s" viewBox="0 0 1440 600" version="1.1" xmlns="http://www.w3.org/2000/svg"><defs><linearGradient id="sw-gradient-0" x1="0" x2="0" y1="1" y2="0"><stop stop-color="rgba(78.535, 114.947, 241.659, 1)" offset="0%"/><stop stop-color="rgba(31, 81, 255, 1)" offset="100%"/></linearGradient></defs><path style="transform:translate(0, 0px); opacity:1" fill="url(#sw-gradient-0)" d="M0,343L80,318.5C160,294,320,245,480,196C640,147,800,98,960,81.7C1120,65,1280,82,1440,89.8C1600,98,1760,98,1920,130.7C2080,163,2240,229,2400,212.3C2560,196,2720,98,2880,122.5C3040,147,3200,294,3360,334.8C3520,376,3680,310,3840,261.3C4000,212,4160,180,4320,179.7C4480,180,4640,212,4800,261.3C4960,310,5120,376,5280,375.7C5440,376,5600,310,5760,285.8C5920,261,6080,278,6240,310.3C6400,343,6560,392,6720,408.3C6880,425,7040,408,7200,351.2C7360,294,7520,196,7680,171.5C7840,147,8000,196,8160,245C8320,294,8480,343,8640,351.2C8800,359,8960,327,9120,261.3C9280,196,9440,98,9600,49C9760,0,9920,0,10080,0C10240,0,10400,0,10560,73.5C10720,147,10880,294,11040,302.2C11200,310,11360,180,11440,114.3L11520,49L11520,600L11440,600C11360,600,11200,600,11040,600C10880,600,10720,600,10560,600C10400,600,10240,600,10080,600C9920,600,9760,600,9600,600C9440,600,9280,600,9120,600C8960,600,8800,600,8640,600C8480,600,8320,600,8160,600C8000,600,7840,600,7680,600C7520,600,7360,600,7200,600C7040,600,6880,600,6720,600C6560,600,6400,600,6240,600C6080,600,5920,600,5760,600C5600,600,5440,600,5280,600C5120,600,4960,600,4800,600C4640,600,4480,600,4320,600C4160,600,4000,600,3840,600C3680,600,3520,600,3360,600C3200,600,3040,600,2880,600C2720,600,2560,600,2400,600C2240,600,2080,600,1920,600C1760,600,1600,600,1440,600C1280,600,1120,600,960,600C800,600,640,600,480,600C320,600,160,600,80,600L0,600Z"/></svg>