<svg id="Layer_1" data-name="Layer 1" xmlns="http://www.w3.org/2000/svg" xmlns:xlink="http://www.w3.org/1999/xlink" viewBox="0 0 257.24 73.51"><defs><style>.cls-1{fill:#fff;}.cls-2{fill:url(#linear-gradient);}.cls-3{fill:url(#linear-gradient-2);}.cls-4{fill:url(#linear-gradient-3);}.cls-5{fill:url(#linear-gradient-5);}.cls-6{fill:url(#linear-gradient-6);}.cls-7{fill:url(#linear-gradient-7);}</style><linearGradient id="linear-gradient" x1="-200.36" y1="474.97" x2="-200.36" y2="364.6" gradientUnits="userSpaceOnUse"><stop offset="0.33" stop-color="#49abb2"/><stop offset="0.42" stop-color="#4eadb4"/><stop offset="0.52" stop-color="#5bb3ba"/><stop offset="0.62" stop-color="#72bec3"/><stop offset="0.73" stop-color="#91ccd1"/><stop offset="0.84" stop-color="#badfe2"/><stop offset="0.96" stop-color="#eaf5f6"/><stop offset="1" stop-color="#fff"/></linearGradient><linearGradient id="linear-gradient-2" x1="-182.41" y1="474.97" x2="-182.41" y2="364.6" xlink:href="#linear-gradient"/><linearGradient id="linear-gradient-3" x1="173.33" y1="95.17" x2="173.33" y2="-15.24" xlink:href="#linear-gradient"/><linearGradient id="linear-gradient-5" x1="-143.52" y1="474.97" x2="-143.52" y2="364.56" xlink:href="#linear-gradient"/><linearGradient id="linear-gradient-6" x1="-103.33" y1="474.97" x2="-103.33" y2="364.56" xlink:href="#linear-gradient"/><linearGradient id="linear-gradient-7" x1="-308.44" y1="454.93" x2="-333.75" y2="372.91" xlink:href="#linear-gradient"/></defs><rect class="cls-1" x="30.36" y="17.69" width="6.38" height="39.39"/><path class="cls-1" d="M-288.62,397.48h-6.33v39.4h6.33v-27.1a8.27,8.27,0,0,1,1.43-5.31,5.17,5.17,0,0,1,4.27-1.75,5.39,5.39,0,0,1,4.27,1.63,7.36,7.36,0,0,1,1.42,4.94v27.59h6.34V408.26c0-3.77-.79-6.62-2.35-8.56s-3.26-2.22-6.34-2.22h-9" transform="translate(340.38 -379.8)"/><path class="cls-1" d="M-244,417.45a12.38,12.38,0,0,0-3.38-1.92c-1.24-.47-2.47-.88-3.68-1.23a33.62,33.62,0,0,1-3.36-1.18,6.14,6.14,0,0,1-2.47-1.82,5,5,0,0,1-.93-3.19,5.36,5.36,0,0,1,1.27-3.91,4.65,4.65,0,0,1,3.74-1.48,4.85,4.85,0,0,1,3.75,1.39,4.81,4.81,0,0,1,1.3,3.7V408h6.07v-.12c0-3.59-.94-5.64-2.85-7.53s-4.67-2.83-8.26-2.83-6.31,1-8.23,3-2.9,4.13-2.9,7.82a11.66,11.66,0,0,0,1,5.09,9.2,9.2,0,0,0,2.53,3.2,13.64,13.64,0,0,0,3.43,2c1.25.5,2.49,1,3.7,1.36a30.09,30.09,0,0,1,3.32,1.24,6.24,6.24,0,0,1,2.39,1.76,4.69,4.69,0,0,1,.89,3,3.89,3.89,0,0,1-1.48,3.43,5.7,5.7,0,0,1-4.32,1.54,5.68,5.68,0,0,1-4.37-1.59,4.33,4.33,0,0,1-1.48-3.69v-.15h-6.07v.15c0,3.8,1,6.15,3.09,8.18s5,3.06,8.83,3.06,6.79-1,8.84-3,3.07-4.26,3.07-7.95a12.51,12.51,0,0,0-.94-5.28A9,9,0,0,0-244,417.45Z" transform="translate(340.38 -379.8)"/><path class="cls-1" d="M-224.54,425.49l-7.34-28h-6.45L-227,436.13l-1.38,5.83a7.3,7.3,0,0,1-2.24,4,6.91,6.91,0,0,1-4.59,1.34h-.72v6h.72a14,14,0,0,0,7.65-1.8,8.69,8.69,0,0,0,3.7-5.41l12.41-48.62h-6.45Z" transform="translate(340.38 -379.8)"/><path class="cls-2" d="M-199.22,429.74a5.12,5.12,0,0,1-.93-3.26V381.7h-6.34v44.74c0,3.32.81,5.88,2.43,7.71a8.64,8.64,0,0,0,6.8,2.73h3v-6h-2.35A3.16,3.16,0,0,1-199.22,429.74Z" transform="translate(340.38 -379.8)"/><path class="cls-3" d="M-181.27,429.74a5.12,5.12,0,0,1-.93-3.26V381.7h-6.34v44.74c0,3.32.81,5.88,2.43,7.71a8.64,8.64,0,0,0,6.8,2.73h3v-6h-2.35A3.16,3.16,0,0,1-181.27,429.74Z" transform="translate(340.38 -379.8)"/><rect class="cls-4" x="170.14" y="17.69" width="6.38" height="39.39"/><rect class="cls-4" x="170.14" y="1.9" width="6.38" height="6.34"/><path class="cls-5" d="M-138.21,436.88h6.34v-39.4h-6.34V426.1a4.31,4.31,0,0,1-1.31,3.49,5.32,5.32,0,0,1-4,1.33,5.47,5.47,0,0,1-4-1.33,4,4,0,0,1-1.39-3.34V397.48h-6.34v28.89c0,3.56.8,6.3,2.38,8.21s3.86,2.3,6.85,2.3Z" transform="translate(340.38 -379.8)"/><path class="cls-6" d="M-92.48,397.48q4.64,0,7,2.91c1.56,1.93,2.35,4.1,2.35,7.87v28.62h-6.34V409.29a7.47,7.47,0,0,0-1.4-4.94,5.39,5.39,0,0,0-4.29-1.63,4.24,4.24,0,0,0-3.76,1.77,9.44,9.44,0,0,0-1.21,5.33v27.06h-6.38V409.29a8.34,8.34,0,0,0-1.21-4.94,4.41,4.41,0,0,0-3.76-1.63,5.17,5.17,0,0,0-4.27,1.75q-1.42,1.74-1.42,5.35v27.06h-6.34v-39.4h31Z" transform="translate(340.38 -379.8)"/><path class="cls-7" d="M-310.95,383.92l0,4.67h-3.88a31,31,0,0,0-6.54.93,15.29,15.29,0,0,0-5.39,2.42,10.42,10.42,0,0,0-4.67,8.33c0,.74-.07,1.47-.11,2.19s-.08,1.48-.12,2.21a11.16,11.16,0,0,1-1.08,4.27c-.37.74-.75,1.46-1.14,2.2l-.27.54,1.62.09a2.18,2.18,0,0,1,2,1.9l0,.61c0,.42,0,.82,0,1.23l.07,7.18a4.11,4.11,0,0,0,.35,1.75,1.33,1.33,0,0,0,.89.83,2.93,2.93,0,0,0,.78.1l2.44.05c.81,0,1.62,0,2.43.05a10.47,10.47,0,0,1,1.78.15,2,2,0,0,1,1.56,2l.06,8.54c0,.12,0,.19,0,.25h-4.66c0-1.29,0-2.57,0-3.87,0-.79,0-1.59,0-2.39l-1.22,0c-1,0-2-.05-3-.14a6.07,6.07,0,0,1-5.24-3.5,9,9,0,0,1-.82-4.22v-5.86l-.68,0c-.75,0-1.49-.05-2.25-.05a2.09,2.09,0,0,1-1.93-1.05,2.25,2.25,0,0,1-.2-2.22,48,48,0,0,1,2.72-5.23,7.09,7.09,0,0,0,1.11-3.29l0-.52c.06-.9.11-1.8.13-2.69a16.86,16.86,0,0,1,1.75-7.49,15.76,15.76,0,0,1,6.78-6.84,25.43,25.43,0,0,1,8.24-2.67,32.23,32.23,0,0,1,4.52-.37l.61,0Z" transform="translate(340.38 -379.8)"/><path class="cls-1" d="M-302.2,381.76a6.27,6.27,0,0,0-4.46-2H-307a6.37,6.37,0,0,0-6.27,6.41,6.3,6.3,0,0,0,1.91,4.53,6.42,6.42,0,0,0,4.58,1.85h.05a6.4,6.4,0,0,0,6.29-6.29A6.31,6.31,0,0,0-302.2,381.76Z" transform="translate(340.38 -379.8)"/></svg>