<svg
  id="Layer_1"
  data-name="Layer 1"
  xmlns="http://www.w3.org/2000/svg"
  width="40"
  height="37.85"
  viewBox="0 0 40 37.85"
>
  <path
    d="M3.15,10.52V16.3c0,2.51,0,5,0,7.51a1.52,1.52,0,0,1-1.36,1.71C.74,25.64,0,24.93,0,23.74,0,20.36,0,17,0,13.61c0-2.23,0-4.46,0-6.69A5.73,5.73,0,0,1,5.85,1.08q14.16,0,28.3,0A5.72,5.72,0,0,1,40,6.86c0,2.44,0,4.88,0,7.32C40,15.3,39.35,16,38.37,16s-1.51-.62-1.54-1.73,0-2.45,0-3.71Zm.08-3.17H22V4.28c-.11,0-.16-.09-.22-.09-5.33,0-10.66,0-16,0A2.63,2.63,0,0,0,3.23,7.35Zm22.07,0h4.12V4.17H25.3Zm11.46,0c.13-2.4-1.4-3.52-4.13-3.1v3.1Z"
    transform="translate(0 -1.08)"
    fill="#FFFFFF"
  />
  <path
    d="M20,38.89c-4.58,0-9.16-.11-13.74,0A6,6,0,0,1,0,32.62c0-.39,0-.78,0-1.17a1.6,1.6,0,0,1,1.54-1.59,1.53,1.53,0,0,1,1.57,1.52c0,.48,0,1,0,1.44a2.76,2.76,0,0,0,3,3H33.55c2.25,0,3.27-1,3.27-3.24,0-3.47,0-6.93,0-10.4a1.73,1.73,0,0,1,.84-1.76A1.54,1.54,0,0,1,40,21.7c0,4,.11,8,0,12a5.58,5.58,0,0,1-5.65,5.16C29.5,38.9,24.74,38.89,20,38.89Z"
    transform="translate(0 -1.08)"
    fill="#FFFFFF"
  />
  <path
    d="M23.15,23.6q0-3.48,0-7c0-1.33.51-1.89,1.83-1.9q3.44,0,6.87,0c1.25,0,1.79.59,1.79,1.85v14.1c0,1.33-.53,1.87-1.83,1.87H25c-1.26,0-1.79-.54-1.79-1.82Q23.14,27.17,23.15,23.6Zm3.16,5.83h4.16V18H26.31Z"
    transform="translate(0 -1.08)"
    fill="#FFFFFF"
  />
  <path
    d="M13.17,26.26H8A1.5,1.5,0,0,1,6.34,24.6c0-2.71,0-5.43,0-8.14,0-1.06.52-1.69,1.55-1.7,3.53,0,7.05,0,10.57,0A1.41,1.41,0,0,1,20,16.24c0,2.83,0,5.67,0,8.5a1.45,1.45,0,0,1-1.65,1.51C16.61,26.27,14.89,26.26,13.17,26.26ZM9.52,17.92v5.17h7.24V17.92Z"
    transform="translate(0 -1.08)"
    fill="#FFFFFF"
  />
  <path
    d="M13.12,32.56H8a1.54,1.54,0,1,1,0-3.08c3.46,0,6.93,0,10.39,0a1.54,1.54,0,1,1,0,3.08Z"
    transform="translate(0 -1.08)"
    fill="#FFFFFF"
  />
</svg>
