<svg id="Layer_1" data-name="Layer 1" xmlns="http://www.w3.org/2000/svg" width="37.98" height="39.74" viewBox="0 0 37.98 39.74"><path fill="#fff"  d="M33.55,27.07a2.24,2.24,0,0,0,2.25-2.24V8.09h-.7A1.61,1.61,0,0,1,33.59,7h0a1.6,1.6,0,0,1,1.58-2.13c.51,0,1,.07,1.51.14A3,3,0,0,1,39,7.85q0,11.33,0,22.64a3.07,3.07,0,0,1-2.68,2.95,8.06,8.06,0,0,1-.85,0H4.54a3.15,3.15,0,0,1-3.42-2.33A3.92,3.92,0,0,1,1,30.06V8.27A3,3,0,0,1,3.82,4.94a7.41,7.41,0,0,1,1.05-.07A1.61,1.61,0,0,1,6.41,7V7A1.6,1.6,0,0,1,4.9,8.09H4.2V24.83a2.24,2.24,0,0,0,2.24,2.24ZM20,31.9a1.67,1.67,0,0,0,1.6-1.55,1.61,1.61,0,0,0-3.22-.07A1.65,1.65,0,0,0,20,31.9Z" transform="translate(-1.01 -0.13)"/><path fill="#fff" d="M27.91,19.09l.53.2a1.53,1.53,0,0,1,1,1.81,1.55,1.55,0,0,1-1.59,1.26c-.68,0-1.36,0-2,0-4.51,0-9,0-13.53,0a1.61,1.61,0,0,1-1.73-1.09,1.48,1.48,0,0,1,.58-1.8,5.91,5.91,0,0,1,.93-.42,11.07,11.07,0,0,1-3-9.59,10.71,10.71,0,0,1,4.13-7,11.09,11.09,0,0,1,14.59.82A11.26,11.26,0,0,1,27.91,19.09ZM19.62,3.34A1.24,1.24,0,0,0,18.39,4.6v.19a.86.86,0,0,1-.63,1,3.37,3.37,0,0,0-2.23,3.37,3.23,3.23,0,0,0,2.78,3c.88.21,1.77.38,2.65.61.52.13,1,.45.84,1.05a1.83,1.83,0,0,1-.95,1,2.2,2.2,0,0,1-2.81-1,.48.48,0,0,0-.35-.19c-.78,0-1.56,0-2.38,0,.19,2,1.4,2.86,3.11,3.33v.89a1.23,1.23,0,0,0,1.23,1.23h.72a1.23,1.23,0,0,0,1.23-1.23V17l.39-.14c1.94-.75,2.8-1.94,2.69-3.75-.09-1.53-1-2.38-3.07-2.88a20,20,0,0,1-2.45-.62,1.3,1.3,0,0,1-.73-1,1.43,1.43,0,0,1,.76-1,2,2,0,0,1,2.57.79c.09.15.25.35.39.36.75,0,1.5,0,2.3,0,.08,0,0-.78-.05-.87a3.24,3.24,0,0,0-1.71-2.19c-.42-.18-1.09-.32-1.1-.89V4.57a1.24,1.24,0,0,0-1.23-1.23Z" transform="translate(-1.01 -0.13)"/><path fill="#fff" d="M20,36.66h7.66a1.73,1.73,0,0,1,1.85,1.72c0,1.47-2.13,1.46-2.13,1.46l-15,0a1.62,1.62,0,0,1-1.78-1.61,1.58,1.58,0,0,1,1.78-1.6Z" transform="translate(-1.01 -0.13)"/></svg>