<svg id="Layer_1" data-name="Layer 1" xmlns="http://www.w3.org/2000/svg" viewBox="0 0 380 270"><defs><style>.cls-1{fill:#82c4e2;}.cls-2{fill:#205682;}.cls-3{fill:#a8d8e8;}.cls-4{fill:#367db5;}.cls-5{fill:#45a6de;}.cls-6{fill:#1b5d7b;}</style></defs><path class="cls-1" d="M528.61-2264.85a214.58,214.58,0,0,1-67.36-10.72,167.77,167.77,0,0,1-33.56-15.22,142.86,142.86,0,0,1-37.31-32,151.79,151.79,0,0,1-17.29-25.42,125.36,125.36,0,0,1-13.78-43.53,100.76,100.76,0,0,1,6.8-50.75,108.9,108.9,0,0,1,13.23-23.15,128.06,128.06,0,0,1,18.55-20c10.64-9.44,22.85-16.93,35.72-23.6A200.89,200.89,0,0,1,471-2523.93a271.81,271.81,0,0,1,51.88-9.87,254.1,254.1,0,0,1,29.31-.95,225.91,225.91,0,0,1,31.34,3.15,288.22,288.22,0,0,1,31.84,7.3A243.61,243.61,0,0,1,678-2496.14c14.66,9.34,28.05,20.16,38.69,33.37s18.39,27.29,20.84,43.43a75.37,75.37,0,0,1-.49,27.11c-3.28,15.58-10.64,29.45-20.58,42.37a184.22,184.22,0,0,1-18.08,19.92,215.69,215.69,0,0,1-24.17,20.24A219,219,0,0,1,629.65-2285a270,270,0,0,1-50.57,15.34,266.85,266.85,0,0,1-32.82,4.28C540.77-2265,535.3-2265,528.61-2264.85Zm-1.31-138.82c-1.47,1.21-3.27.58-4.91.63-2.73.08-5.42.13-7.68,1.71-.74.52-1.72,1.13-1.62,2.06.12,1.08,1.37.59,2.1.82,1.87.6,2.84,1.71,2.55,3.53s-1.91,1.79-3.46,1.76a6.13,6.13,0,0,0-3.14.49c-.67.35-1.32.8-1.22,1.56.13,1.07,1.15.59,1.79.62a10.25,10.25,0,0,1,3.49.45,2.45,2.45,0,0,1,1.71,2.81c-.18,1.44-1.23,1.63-2.53,1.59a7.8,7.8,0,0,0-3.77.61,3.24,3.24,0,0,0-2,3.63c.32,2,2.07.61,3.1.93a7.62,7.62,0,0,0,1.92.1,4.45,4.45,0,0,0-.29,5c-11.64-2-20.62,1.38-27,10.46-4.18,6-8.63,11.76-13,17.63s-8.68,11.74-13,17.62c-1,1.35-1.76,2.36-3,.17-1.86-3.32-5.1-4.47-9-4.45,9-3.45,12.38-10,11.72-18.29-.62-7.69-2.24-15.18-11.67-18.54a2.53,2.53,0,0,1,2.87-.77,28.16,28.16,0,0,0,7.39.36c6.71-.11,12.62-2,17.33-6.49,9.68-9.21,9.5-23.28,2-32.84-1-1.32-1-2.1.89-2.44.91-.17,2.08-.51,1-1.39-1.94-1.62-2.36-4-4-6a3.31,3.31,0,0,0,0,3.75c.34.65,1.19,1.43.26,2.07s-1.64-.11-2.32-.55a30.34,30.34,0,0,0-18.36-5,30,30,0,0,0-8.65,1.87c-9.29,3.13-14.55,9.5-17.68,17.59-1.92,5,.62,9.52,1.88,14.13,1.49,5.44,5.45,9.24,11,11.89,1.58.76,3.94.8,4.51,2.91-4-.79-7.92-1.45-11.27,1.38a34.71,34.71,0,0,0-8.24,9.57c-2.31,4.18-1.87,9.2.88,11.72.51.46,1.05,1.23,1.86.71s.23-1.17-.16-1.78c-2-3-1.72-4.15,1.43-6.28a9.08,9.08,0,0,0,2.23-2,6,6,0,0,1,5.4-2.58c1.87.08,3.4-.72,5.06-1.49,2.07-1,4.46-2.49,6.86-1.63,3.45,1.23,7.22,2.48,7.29,6.85,0,1.62.64,3.23.72,4.86a18.18,18.18,0,0,1-3.26,11.91,12.17,12.17,0,0,1-11.73,5.3c1.63,1.4,3.47.32,4.86,1.15-3.43,1.55-7,1.43-10.57.6-.76-.17-1.71-1-2.35-.2-1.75,2.23-4.81,3.19-6.38,5.61-1.13,1.73-1.54,3.13.8,4.23l-.53.49c-.86-.22-1.86-.84-2.28.47-.5,1.55-1.11,3.16,1.1,4.14l-.65.51c-1.16,0-1.78.87-1.35,1.5,1.53,2.23-.19,4.66.78,6.87.76,1.71,1.57,3.39,2.21,5.13.86,2.38,2.45,3.15,5.3,3,8.38-.39,16.77-.56,25.16-.62,2.75,0,4.08-.75,3.67-3.32,4.11-.73,8-1.72,9.6-5.84l.16-1a1.7,1.7,0,0,0,1.29-1.17q1.67-6.15,3.38-12.3c.32-1.13-.31-1.83-1.17-2.47,4.64-6.39,9.24-12.79,13.93-19.16,3.08-4.18,6.26-8.31,9.43-12.45a8.39,8.39,0,0,1,8.4-3.21c3,.44,5.93.93,8.85,1.56a35.59,35.59,0,0,0,26-3.88c9.06-5.16,14.88-12.67,19.49-21.12,3.22-5.89,5.64-12.11,9.18-17.88,2-3.2,4.63-4.73,8.87-4.52,10.73.54,21.49.77,32.23,1.21,4.26.17,7.24-1.18,9.64-4.51,10-13.87,20.22-27.59,30.36-41.37,2.8-3.8,2.36-7.7-1.06-9.72-3.73-2.21-7.81-1.24-10.71,2.66-9,12.15-18,24.27-26.83,36.51-1.9,2.62-3.8,3.73-7.5,3.48-9.21-.63-18.47-.81-27.72-.92a21.14,21.14,0,0,0-17.59,8.18,59.23,59.23,0,0,0-6.33,10.74c-3.3,6.6-6.13,13.41-11.12,19.22-1.29-2.86-.86-5.65-.15-8.62,1.59-6.64,1.4-6.68-5.94-5.83-.21,0-.43,0-.64,0a9.91,9.91,0,0,0-7.49-6.32c5.81-2.84,8-7.51,8.22-13.15.17-4-.86-7.86-2-11.69a5.52,5.52,0,0,1,3.7.68c4,2.17,8.58,2.36,13.08,2.64,2.15.13,4.32,0,6.44.26,10.5,1.21,20.41-.49,28.67-6.38,14.69-10.49,22.92-24.12,22-41.4-.71-13.82-8-24.67-20.6-32.06-11.83-6.93-25.35-8.79-39.32-6.69a45.21,45.21,0,0,0-18.65,6.76,42.17,42.17,0,0,0-17.62,24.2,51.48,51.48,0,0,0-1.8,15.79c.19,7.45,3.33,14,8.41,19.93,1.25,1.45,2.91,2.91,3.06,5-3.87.51-7.54-.29-10.83,3.74a20,20,0,0,0-4.16,9.31,5.59,5.59,0,0,0,.77,4.23c.79-1.61,1.32-2.84,2-4,3.07-5.29,8.19-6.7,13.82-3.84a8,8,0,0,0,5.22,1.09c3.46-.78,4.52.86,5,3.42.25,1.32.71,2.62.93,3.95,1.57,9.67-1.75,15.08-11.33,18.5Zm131,50.34c-3.58-.53-6.72-2.26-10.18-3.11a33.31,33.31,0,0,0-6.7-.76c-1.66-.06-3.59,2-4.74.21-.78-1.24-.18-3.21-.16-4.85,0-.47.19-.95.24-1.43.43-4.33,2.1-8.4,3.84-13.13-3.69,2-4.74,4.7-5.42,7.46-2.16,8.79-1.81,17.21,5.51,24.34-5.57,1.37-8.42,4-10.77,10-3-.42-5.92-.84-8.88-1.24-3.33-.46-3.72-.08-3.14,2.95.71,3.77,2.3,7.38,1.85,11.35-.24,2.07,1.75,3.16,3.66,3.93,1.07.44,2.22.72,3.32,1.07,1.6,3.92,5.14,5.81,9.27,7a50.5,50.5,0,0,0,22.32.77c2.35-.39,4.81-.57,7-1.89-1.26-1.6-3-1.33-4.52-1.36s-2.75-.31-3.05-1.94.55-2.8,2.23-3.41a14.26,14.26,0,0,1,4.79-.39c2.54,0,3.18-.88,2.16-3-1.38-2.89-4.31-2.85-7.13-2.84-1.57,0-2.77-.29-3.08-1.87s.6-2.46,1.92-3a9.57,9.57,0,0,1,5.36-.6c.61.1,1.39.39,1.68-.35s-.23-1.29-.85-1.72c-1.47-1-3.22-1-4.94-.92-1.91.06-3.86.09-4.17-2.15s1.34-3.26,3.45-3.91c.86-.26,2.3.31,2.5-.75s-1-1.65-1.81-2.26a10,10,0,0,0-3.75-1.58c-2.55-.61-5.2-.33-8.21-.58,4.81-2.68,9.69-4.63,10.44-10a2.44,2.44,0,0,0,3.13-.47,13.79,13.79,0,0,0,3.56-4.77c.43-1,1.08-2.15-.11-2.92a2.78,2.78,0,0,0-3.8.6c3.25.29,2.89,1.77,1.83,3.61S660-2354.51,658.28-2353.33ZM573.12-2329c-.87.17-1.25.27-1.64.32-2.24.28-4.5.52-6.43,1.72a2.39,2.39,0,0,0-1.36,2.46c.23,1.26,1.47.85,2.36.88,1.65.05,3.31,0,5.83,0-2.64,1.48-4.61,2.41-6.36,3.6-4.16,2.83-4.24,6.89.17,9.29,10.47,5.7,21.53,6.27,32.69,1.78,4.52-1.82,6-5.18,5.26-9.56-.46-2.58-.89-5.16-1.52-7.7-1.48-6-3.61-11.75-8.71-16.18-.84-.73-1.66-1.79-2.92-1.63-5,.64-10.12-.14-15.16.34-3.55.34-6.32,1.78-7.7,4.93-.57,1.27-.44,2,1.39,2a8.57,8.57,0,0,1,6.16,2c-3.82.66-7.78-.21-9.9,3.28C568.47-2332.24,570.73-2331.12,573.12-2329Zm86.5-143.75c-.34,2.49-.6,4.49-.87,6.48q-1.53,11.22-3.07,22.45c-.37,2.7.9,4.7,3.37,6.12a7.13,7.13,0,0,0,7,0c2.74-1.37,3.5-3.78,3.85-6.35.58-4.22,1.14-8.44,1.74-12.66,1.21-8.53,2.48-17.06,3.64-25.6.73-5.41-3.68-8.72-9.46-7.12a41.24,41.24,0,0,0-4.46,1.68,192.94,192.94,0,0,0-31.71,16.07c-3.43,2.2-4.35,5.43-2.59,8.34,2.1,3.48,6.71,4.37,10.81,1.93A188.1,188.1,0,0,1,659.62-2472.8Zm-194.2,45.9a40.07,40.07,0,0,0,18-3c7.92-3.16,12.46-9.52,16.55-16.08a29.33,29.33,0,0,0,4-10.59c1.23-7-2.3-13.14-5.09-19.09-4.69-10-14.46-14.58-26.08-16.18-8.51-1.17-16.94-.45-24.38,3.33s-13.32,9.16-16.23,16.85c-4.69,12.39-1.3,23.67,6.51,33.74C444.9-2430,454.23-2426.22,465.42-2426.9Zm113,79.63c-.21-.95-1.33-1.42-1.48-2.49-.47-3.36-1.29-6.67-1.66-10a42.13,42.13,0,0,1-.17-8.4c.27-3,1.77-3.56,4.72-2.19,2.69,1.25,5.6,1.86,8.22.07,1.38-.93,3-1.57,4.25-2.52,1.79-1.3,2.43-.75,3.1.86,1.9,4.51,2.82,9.06,1.78,13.9-1.1,5.06-4.12,8.62-10.33,10.8,6.1-.35,10.08-3.43,11.48-8.3,1.72-5.95.79-11.69-1.88-17.26-.46-1-1.29-2-1.23-2.94.2-2.78-1.89-3.59-4.11-4.5-4.19-1.7-8.28-1.16-12.51,0-5.33,1.46-8.84,4.34-10,9.25-1.87,7.84.22,15.16,3.94,22.2C574.32-2345.47,574.82-2345.42,578.42-2347.27Zm62.11-30.9a20.73,20.73,0,0,1,15.14,2.33c4.73,2.74,7.49,6.6,8.1,12,2.15-3.21,2.4-5.89,1.05-8.68q-4.83-10-16.94-10.63C644-2383.33,641.52-2381.77,640.53-2378.17Zm-57.46-138c1.41-.2,3-.4,4.57-.64.85-.13,1.9-.27,1.85-1.25-.07-1.26-1.34-1-2.23-1a43.24,43.24,0,0,0-5.46,0c-4.19.38-8-.77-11.87-2-1.61-.5-3.11-1.27-4.7-1.83a1.4,1.4,0,0,0-2,.94c-.26.83.32,1.19,1.08,1.51C570.22-2518,576.5-2517,583.07-2516.18Zm19.47,4.88c-1.31.52-1,1.6-.95,2.5.23,4.81,3.57,8.56,5.47,12.81a2.75,2.75,0,0,0,.89.83c.82.62,1.82,1.5,2.8.8s.27-1.79-.32-2.6c-1.52-2.09-3.7-3.8-4.43-6.33-.61-2.15-1.29-4.28-1.9-6.42C603.88-2510.49,603.68-2511.23,602.54-2511.3Zm-71.62-2.56c-2.11,0-3.28,0-4.45,0-.65,0-1.34.17-1.4.91s.54,1,1.16,1.2c3.85,1.53,10.92.32,13.82-2.41.63-.59,1.69-1.25.88-2.16s-1.86-.4-2.58.17A11,11,0,0,1,530.92-2513.86Zm-105.06,63a22.74,22.74,0,0,0-3.07-11.77c-.43-.7-.54-2-1.84-1.45s-.38,1.54,0,2.26a23.64,23.64,0,0,1,3,10.83c.05,1.26-1,3.51,1,3.57C426.4-2447.35,425.53-2449.68,425.86-2450.84Zm8.23-32.13c-.06-.47-.17-.91-.71-.89a2.31,2.31,0,0,0-1.93,1.38c-1.58,3-4.57,4.78-7.3,6.77-.59.42-2.07.3-1.41,1.41.45.75,1.67.47,2.36.06a26.77,26.77,0,0,0,8.73-8A2.86,2.86,0,0,0,434.09-2483Zm56.28,93.21a3.72,3.72,0,0,0-.44-3.12,28.9,28.9,0,0,1-1.48-5.91c-.32-1.48,1.79-4-.43-4.13-1.48-.11-.79,3-.75,4.63C487.35-2395.37,487.59-2392.39,490.37-2389.76Zm-54.78-44.08c3,2.39,5.32,4.81,5.88,8.21a1.14,1.14,0,0,0,.86.67c.28,0,.68-.44.79-.75C444.09-2428.58,439.71-2433.59,435.59-2433.84Zm52.3,50.83c-3.88.54-6,3.05-8,5.64a.72.72,0,0,0,.29,1.21,1,1,0,0,0,1.29-.59,11.23,11.23,0,0,1,5.3-4.47C487.44-2381.52,488.13-2381.92,487.89-2383Zm-43,39.37c.6,2.21,2.12,3,4.3,2.69,1.59-.21,2.41-1,2.35-3.14C449.2-2341.1,447.09-2342,444.89-2343.64Zm-6.54,5.92c-1.76-1.19-2.71-3.25-5.43-4.19C433.89-2339.12,435.5-2337.75,438.35-2337.72Zm146.33-16.88c3,2.1,4.63,1.76,6.2-1.4A8.25,8.25,0,0,1,584.68-2354.6Zm-58-56.85c-.17-.51-.19-1.42-1.37-1.37-.93,0-1.17.76-1.18,1.46a1.32,1.32,0,0,0,1.25,1.44C526.33-2409.83,526.57-2410.49,526.65-2411.45Zm-73.81,57.86c-.11-.63-.39-1.17-1.2-1s-1.6.2-1.63,1.08c0,.55.57.78,1.1.84C451.91-2352.61,452.61-2352.75,452.84-2353.59Z" transform="translate(-358.54 2534.85)"/><path class="cls-2" d="M448.34-2333.91c3.93,0,7.17,1.13,9,4.45,1.22,2.19,2,1.18,3-.17,4.31-5.88,8.66-11.75,13-17.62s8.78-11.67,13-17.63c6.39-9.08,15.37-12.48,27-10.46a135.28,135.28,0,0,0,22.79-2.87,12.41,12.41,0,0,0,7.94-5.24c5-5.81,7.82-12.62,11.12-19.22a59.23,59.23,0,0,1,6.33-10.74,21.14,21.14,0,0,1,17.59-8.18c9.25.11,18.51.29,27.72.92,3.7.25,5.6-.86,7.5-3.48,8.83-12.24,17.85-24.36,26.83-36.51,2.9-3.9,7-4.87,10.71-2.66,3.42,2,3.86,5.92,1.06,9.72-10.14,13.78-20.37,27.5-30.36,41.37-2.4,3.33-5.38,4.68-9.64,4.51-10.74-.44-21.5-.67-32.23-1.21-4.24-.21-6.92,1.32-8.87,4.52-3.54,5.77-6,12-9.18,17.88-4.61,8.45-10.43,16-19.49,21.12a35.59,35.59,0,0,1-26,3.88c-2.92-.63-5.89-1.12-8.85-1.56a8.39,8.39,0,0,0-8.4,3.21c-3.17,4.14-6.35,8.27-9.43,12.45-4.69,6.37-9.29,12.77-13.93,19.16a98.17,98.17,0,0,1-15.52,2.3c-6,.51-11.15,1.31-12.11,7.81-.07.45-.49.86-.7,1.3a45.05,45.05,0,0,1-6.88,10.07c-1.14,1.29-1.15,2.44,1.12,2.42,7-.07,14,.59,20.83-1.15.41,2.57-.92,3.3-3.67,3.32-8.39.06-16.78.23-25.16.62-2.85.13-4.44-.64-5.3-3-.64-1.74-1.45-3.42-2.21-5.13-1-2.21.75-4.64-.78-6.87-.43-.63.19-1.5,1.35-1.5l.74.13-.09-.64c-2.21-1-1.6-2.59-1.1-4.14.42-1.31,1.42-.69,2.28-.47l.69.56c.28.16.58.29.78,0,.05-.08-.17-.3-.26-.45l-.68-.56c-2.34-1.1-1.93-2.5-.8-4.23,1.57-2.42,4.63-3.38,6.38-5.61.64-.8,1.59,0,2.35.2,3.61.83,7.14.95,10.57-.6Z" transform="translate(-358.54 2534.85)"/><path class="cls-3" d="M523.4-2440.32c-.15-2.08-1.81-3.54-3.06-5-5.08-5.91-8.22-12.48-8.41-19.93a51.48,51.48,0,0,1,1.8-15.79,42.17,42.17,0,0,1,17.62-24.2A45.21,45.21,0,0,1,550-2512c14-2.1,27.49-.24,39.32,6.69,12.6,7.39,19.89,18.24,20.6,32.06.89,17.28-7.34,30.91-22,41.4-8.26,5.89-18.17,7.59-28.67,6.38-2.12-.25-4.29-.13-6.44-.26-4.5-.28-9-.47-13.08-2.64a5.52,5.52,0,0,0-3.7-.68c-2.21-2.1-.51-5.14-2.15-7.34-.64-.86-1-3.64-3-.78-.42.6-1,.2-1.33-.13C527.8-2438.82,525.48-2439.36,523.4-2440.32Zm38.71,8.19c7.77.51,15.13-.68,20.81-4.74,13.6-9.74,21.56-22.25,19.26-38.52-1.6-11.29-8.46-19.69-19.26-25.35-8.2-4.29-17.3-5.4-26.73-5.09-13.8.46-23.61,6.62-30.82,16.78-3.14,4.44-4.36,9.39-5.22,14.49-1.24,7.38-1.3,14.53,3.25,21.26,1.47,2.17,3.44,3.94,4.8,6.13,2.9,4.64,7.23,8.17,12,11.13,2.44,1.53,5.21,3.27,8.47,3.3C553.25-2432.69,557.82-2431.69,562.11-2432.13Z" transform="translate(-358.54 2534.85)"/><path class="cls-2" d="M573.12-2329c-2.39-2.07-4.65-3.19-7.84-2.5,2.12-3.49,6.08-2.62,9.9-3.28a8.57,8.57,0,0,0-6.16-2c-1.83,0-2-.7-1.39-2,1.38-3.15,4.15-4.59,7.7-4.93,5-.48,10.11.3,15.16-.34,1.26-.16,2.08.9,2.92,1.63,5.1,4.43,7.23,10.18,8.71,16.18.63,2.54,1.06,5.12,1.52,7.7.79,4.38-.74,7.74-5.26,9.56-11.16,4.49-22.22,3.92-32.69-1.78-4.41-2.4-4.33-6.46-.17-9.29,1.75-1.19,3.72-2.12,6.36-3.6-2.52,0-4.18,0-5.83,0-.89,0-2.13.38-2.36-.88a2.39,2.39,0,0,1,1.36-2.46c1.93-1.2,4.19-1.44,6.43-1.72C571.87-2328.78,572.25-2328.88,573.12-2329Z" transform="translate(-358.54 2534.85)"/><path class="cls-2" d="M659.62-2472.8a188.1,188.1,0,0,0-21.71,11.38c-4.1,2.44-8.71,1.55-10.81-1.93-1.76-2.91-.84-6.14,2.59-8.34a192.94,192.94,0,0,1,31.71-16.07,41.24,41.24,0,0,1,4.46-1.68c5.78-1.6,10.19,1.71,9.46,7.12-1.16,8.54-2.43,17.07-3.64,25.6-.6,4.22-1.16,8.44-1.74,12.66-.35,2.57-1.11,5-3.85,6.35a7.13,7.13,0,0,1-7,0c-2.47-1.42-3.74-3.42-3.37-6.12q1.53-11.22,3.07-22.45C659-2468.31,659.28-2470.31,659.62-2472.8Z" transform="translate(-358.54 2534.85)"/><path class="cls-2" d="M629.9-2334.59c2.35-6,5.2-8.64,10.77-10-7.32-7.13-7.67-15.55-5.51-24.34.68-2.76,1.73-5.5,5.42-7.46-1.74,4.73-3.41,8.8-3.84,13.13,0,.48-.24,1-.24,1.43,0,1.64-.62,3.61.16,4.85,1.15,1.83,3.08-.27,4.74-.21a33.31,33.31,0,0,1,6.7.76c3.46.85,6.6,2.58,10.18,3.11h0c-.75,5.37-5.63,7.32-10.44,10,3,.25,5.66,0,8.21.58a10,10,0,0,1,3.75,1.58c.83.61,2,1.31,1.81,2.26s-1.64.49-2.5.75c-2.11.65-3.76,1.65-3.45,3.91s2.26,2.21,4.17,2.15c1.72,0,3.47-.11,4.94.92.62.43,1.13,1,.85,1.72s-1.07.45-1.68.35a9.57,9.57,0,0,0-5.36.6c-1.32.57-2.21,1.55-1.92,3s1.51,1.88,3.08,1.87c2.82,0,5.75-.05,7.13,2.84,1,2.12.38,3-2.16,3a14.26,14.26,0,0,0-4.79.39c-1.68.61-2.54,1.68-2.23,3.41s1.52,1.9,3.05,1.94,3.26-.24,4.52,1.36c-2.14,1.32-4.6,1.5-7,1.89a50.5,50.5,0,0,1-22.32-.77c-4.13-1.16-7.67-3.05-9.27-7,4.46.57,8.91,1.13,13.36,1.73,3.39.45,5.61-.52,7.15-3.49,2.15-4.13,1.72-5.19-3.31-5.23-2.45,0-3.82-.89-4.37-3a31.65,31.65,0,0,1-.92-3.07c-.37-2.66-2.41-3.71-4.94-4.3C632.44-2334.17,631.16-2334.36,629.9-2334.59Zm16.22-18.47a8.87,8.87,0,0,0-5.62-.85C642.52-2352.6,644.23-2352.33,646.12-2353.06Z" transform="translate(-358.54 2534.85)"/><path class="cls-3" d="M465.42-2426.9c-11.19.68-20.52-3.09-26.66-11-7.81-10.07-11.2-21.35-6.51-33.74,2.91-7.69,8.81-13.07,16.23-16.85s15.87-4.5,24.38-3.33c11.62,1.6,21.39,6.17,26.08,16.18,2.79,6,6.32,12.08,5.09,19.09a29.33,29.33,0,0,1-4,10.59c-4.09,6.56-8.63,12.92-16.55,16.08A40.07,40.07,0,0,1,465.42-2426.9Zm4.14-60.23c-21.24-.65-34.35,12.72-33.78,26.4.7,17,10.91,28.52,28.72,29.19,21.27.81,32.18-14.52,34.29-27.92-2.05-7.48-3.59-15.27-10.16-20.85C482.56-2485.47,474.64-2486.62,469.56-2487.13Z" transform="translate(-358.54 2534.85)"/><path class="cls-3" d="M446.47-2371.6c-.57-2.11-2.93-2.15-4.51-2.91-5.52-2.65-9.48-6.45-11-11.89-1.26-4.61-3.8-9.17-1.88-14.13,3.13-8.09,8.39-14.46,17.68-17.59a30,30,0,0,1,8.65-1.87,30.34,30.34,0,0,1,18.36,5c.68.44,1.52,1.1,2.32.55s.08-1.42-.26-2.07a3.31,3.31,0,0,1,0-3.75c1.64,1.94,2.06,4.33,4,6,1.05.88-.12,1.22-1,1.39-1.86.34-1.93,1.12-.89,2.44,7.53,9.56,7.71,23.63-2,32.84-4.71,4.48-10.62,6.38-17.33,6.49a28.16,28.16,0,0,1-7.39-.36,2.53,2.53,0,0,0-2.87.77ZM433-2396.13c1.33,14.42,8.67,20.87,24.91,21.4,11.45.38,22-9.32,21.53-19.65-.67-13.79-8.45-21.3-22.07-21.85C442.7-2416.82,434.06-2406.31,433-2396.13Z" transform="translate(-358.54 2534.85)"/><path class="cls-4" d="M463.31-2305.52c-6.85,1.74-13.87,1.08-20.83,1.15-2.27,0-2.26-1.13-1.12-2.42a45.05,45.05,0,0,0,6.88-10.07c.21-.44.63-.85.7-1.3,1-6.5,6.14-7.3,12.11-7.81a98.17,98.17,0,0,0,15.52-2.3c.86.64,1.49,1.34,1.17,2.47q-1.73,6.15-3.38,12.3a1.7,1.7,0,0,1-1.29,1.17,32.2,32.2,0,0,0-9,2.35,22.16,22.16,0,0,0,4.17-.58c1.56-.3,3.12-.53,4.68-.8C471.35-2307.24,467.42-2306.25,463.31-2305.52ZM461-2309c-3.49.24-7,.55-10,2.37Zm-12.49,2.66a5.37,5.37,0,0,0-3.83.54C445.83-2305.81,447-2305.32,448.51-2306.34Z" transform="translate(-358.54 2534.85)"/><path class="cls-4" d="M544-2383.45a12.41,12.41,0,0,1-7.94,5.24,135.28,135.28,0,0,1-22.79,2.87,4.45,4.45,0,0,1,.29-5,4.74,4.74,0,0,0,3.74-1.87,22.1,22.1,0,0,0,5.4-10c.84-3.39,3.15-4.3,6.39-4.4a30.41,30.41,0,0,0,8.18-1.25c.21,0,.43,0,.64,0,7.34-.85,7.53-.81,5.94,5.83C543.18-2389.1,542.75-2386.31,544-2383.45Z" transform="translate(-358.54 2534.85)"/><path class="cls-2" d="M578.42-2347.27c-3.6,1.85-4.1,1.8-5.88-1.55-3.72-7-5.81-14.36-3.94-22.2,1.16-4.91,4.67-7.79,10-9.25,4.23-1.16,8.32-1.7,12.51,0,2.22.91,4.31,1.72,4.11,4.5-.06,1,.77,2,1.23,2.94,2.67,5.57,3.6,11.31,1.88,17.26-1.4,4.87-5.38,8-11.48,8.3,6.21-2.18,9.23-5.74,10.33-10.8,1-4.84.12-9.39-1.78-13.9-.67-1.61-1.31-2.16-3.1-.86-1.3.95-2.87,1.59-4.25,2.52-2.62,1.79-5.53,1.18-8.22-.07-3-1.37-4.45-.85-4.72,2.19a42.13,42.13,0,0,0,.17,8.4c.37,3.36,1.19,6.67,1.66,10C577.09-2348.69,578.21-2348.22,578.42-2347.27Z" transform="translate(-358.54 2534.85)"/><path class="cls-4" d="M629.9-2334.59c1.26.23,2.54.42,3.78.71,2.53.59,4.57,1.64,4.94,4.3a31.65,31.65,0,0,0,.92,3.07c.55,2.1,1.92,3,4.37,3,5,0,5.46,1.1,3.31,5.23-1.54,3-3.76,3.94-7.15,3.49-4.45-.6-8.9-1.16-13.36-1.73-1.1-.35-2.25-.63-3.32-1.07-1.91-.77-3.9-1.86-3.66-3.93.45-4-1.14-7.58-1.85-11.35-.58-3-.19-3.41,3.14-2.95C624-2335.43,626.94-2335,629.9-2334.59Z" transform="translate(-358.54 2534.85)"/><path class="cls-2" d="M446.47-2371.6l1.93.86c9.43,3.36,11.05,10.85,11.67,18.54.66,8.28-2.7,14.84-11.73,18.29l.06,0c-1.39-.83-3.23.25-4.86-1.15a12.17,12.17,0,0,0,11.73-5.3,18.18,18.18,0,0,0,3.26-11.91c-.08-1.63-.69-3.24-.72-4.86-.07-4.37-3.84-5.62-7.29-6.85-2.4-.86-4.79.67-6.86,1.63-1.66.77-3.19,1.57-5.06,1.49a6,6,0,0,0-5.4,2.58,9.08,9.08,0,0,1-2.23,2c-3.15,2.13-3.38,3.24-1.43,6.28.39.61.93,1.27.16,1.78s-1.35-.25-1.86-.71c-2.75-2.52-3.19-7.54-.88-11.72a34.71,34.71,0,0,1,8.24-9.57C438.55-2373,442.52-2372.39,446.47-2371.6Z" transform="translate(-358.54 2534.85)"/><path class="cls-2" d="M523.4-2440.32c2.08,1,4.4,1.5,6.13,3,.38.33.91.73,1.33.13,2-2.86,2.35-.08,3,.78,1.64,2.2-.06,5.24,2.15,7.34,1.18,3.83,2.21,7.68,2,11.69-.24,5.64-2.41,10.31-8.22,13.15l.06,0c-1-.05-2-.2-2.67.61l.09,0-2.48-.25c9.58-3.42,12.9-8.83,11.33-18.5-.22-1.33-.68-2.63-.93-3.95-.49-2.56-1.55-4.2-5-3.42a8,8,0,0,1-5.22-1.09c-5.63-2.86-10.75-1.45-13.82,3.84-.67,1.16-1.2,2.39-2,4a5.59,5.59,0,0,1-.77-4.23,20,20,0,0,1,4.16-9.31C515.86-2440.61,519.53-2439.81,523.4-2440.32Z" transform="translate(-358.54 2534.85)"/><path class="cls-2" d="M537.31-2397.88a30.41,30.41,0,0,1-8.18,1.25c-3.24.1-5.55,1-6.39,4.4a22.1,22.1,0,0,1-5.4,10,4.74,4.74,0,0,1-3.74,1.87,7.62,7.62,0,0,1-1.92-.1c-1-.32-2.78,1.09-3.1-.93a3.24,3.24,0,0,1,2-3.63,7.8,7.8,0,0,1,3.77-.61c1.3,0,2.35-.15,2.53-1.59a2.45,2.45,0,0,0-1.71-2.81,10.25,10.25,0,0,0-3.49-.45c-.64,0-1.66.45-1.79-.62-.1-.76.55-1.21,1.22-1.56a6.13,6.13,0,0,1,3.14-.49c1.55,0,3.15.12,3.46-1.76s-.68-2.93-2.55-3.53c-.73-.23-2,.26-2.1-.82-.1-.93.88-1.54,1.62-2.06,2.26-1.58,4.95-1.63,7.68-1.71,1.64-.05,3.44.58,4.91-.63l-.09,0a2.37,2.37,0,0,0,2.67-.61l-.06,0A9.91,9.91,0,0,1,537.31-2397.88Z" transform="translate(-358.54 2534.85)"/><path class="cls-2" d="M640.53-2378.17c1-3.6,3.42-5.16,7.35-5q12.11.65,16.94,10.63c1.35,2.79,1.1,5.47-1.05,8.68-.61-5.42-3.37-9.28-8.1-12A20.73,20.73,0,0,0,640.53-2378.17Z" transform="translate(-358.54 2534.85)"/><path class="cls-3" d="M583.07-2516.18c-6.57-.78-12.85-1.78-18.73-4.26-.76-.32-1.34-.68-1.08-1.51a1.4,1.4,0,0,1,2-.94c1.59.56,3.09,1.33,4.7,1.83,3.83,1.21,7.68,2.36,11.87,2a43.24,43.24,0,0,1,5.46,0c.89,0,2.16-.23,2.23,1,0,1-1,1.12-1.85,1.25C586.06-2516.58,584.48-2516.38,583.07-2516.18Z" transform="translate(-358.54 2534.85)"/><path class="cls-3" d="M602.54-2511.3c1.14.07,1.34.81,1.56,1.59.61,2.14,1.29,4.27,1.9,6.42.73,2.53,2.91,4.24,4.43,6.33.59.81,1.34,1.87.32,2.6s-2-.18-2.8-.8a2.75,2.75,0,0,1-.89-.83c-1.9-4.25-5.24-8-5.47-12.81C601.55-2509.7,601.23-2510.78,602.54-2511.3Z" transform="translate(-358.54 2534.85)"/><path class="cls-3" d="M530.92-2513.86a11,11,0,0,0,7.43-2.28c.72-.57,1.83-1,2.58-.17s-.25,1.57-.88,2.16c-2.9,2.73-10,3.94-13.82,2.41-.62-.24-1.2-.52-1.16-1.2s.75-.89,1.4-.91C527.64-2513.89,528.81-2513.86,530.92-2513.86Z" transform="translate(-358.54 2534.85)"/><path class="cls-3" d="M425.86-2450.84c-.33,1.16.54,3.49-.93,3.44-2-.06-.92-2.31-1-3.57a23.64,23.64,0,0,0-3-10.83c-.4-.72-1.23-1.74,0-2.26s1.41.75,1.84,1.45A22.74,22.74,0,0,1,425.86-2450.84Z" transform="translate(-358.54 2534.85)"/><path class="cls-3" d="M434.09-2483a2.86,2.86,0,0,1-.26.76,26.77,26.77,0,0,1-8.73,8c-.69.41-1.91.69-2.36-.06-.66-1.11.82-1,1.41-1.41,2.73-2,5.72-3.75,7.3-6.77a2.31,2.31,0,0,1,1.93-1.38C433.92-2483.88,434-2483.44,434.09-2483Z" transform="translate(-358.54 2534.85)"/><path class="cls-3" d="M490.37-2389.76c-2.78-2.63-3-5.61-3.1-8.53,0-1.63-.73-4.74.75-4.63,2.22.16.11,2.65.43,4.13a28.9,28.9,0,0,0,1.48,5.91A3.72,3.72,0,0,1,490.37-2389.76Z" transform="translate(-358.54 2534.85)"/><path class="cls-3" d="M435.59-2433.84c4.12.25,8.5,5.26,7.53,8.13-.11.31-.51.74-.79.75a1.14,1.14,0,0,1-.86-.67C440.91-2429,438.56-2431.45,435.59-2433.84Z" transform="translate(-358.54 2534.85)"/><path class="cls-4" d="M658.27-2353.34h0c1.68-1.18,3.56-2.14,4.6-4s1.42-3.32-1.83-3.61a2.78,2.78,0,0,1,3.8-.6c1.19.77.54,1.93.11,2.92a13.79,13.79,0,0,1-3.56,4.77A2.44,2.44,0,0,1,658.27-2353.34Z" transform="translate(-358.54 2534.85)"/><path class="cls-3" d="M487.89-2383c.24,1.09-.45,1.49-1.08,1.79a11.23,11.23,0,0,0-5.3,4.47,1,1,0,0,1-1.29.59.72.72,0,0,1-.29-1.21C481.93-2380,484-2382.47,487.89-2383Z" transform="translate(-358.54 2534.85)"/><path class="cls-2" d="M444.89-2343.64c2.2,1.6,4.31,2.54,6.65-.45.06,2.12-.76,2.93-2.35,3.14C447-2340.67,445.49-2341.43,444.89-2343.64Z" transform="translate(-358.54 2534.85)"/><path class="cls-2" d="M438.35-2337.72c-2.85,0-4.46-1.4-5.43-4.19C435.64-2341,436.59-2338.91,438.35-2337.72Z" transform="translate(-358.54 2534.85)"/><path class="cls-2" d="M584.68-2354.6a8.25,8.25,0,0,0,6.2-1.4C589.31-2352.84,587.66-2352.5,584.68-2354.6Z" transform="translate(-358.54 2534.85)"/><path class="cls-5" d="M472.91-2311.36c-1.56.27-3.12.5-4.68.8a22.16,22.16,0,0,1-4.17.58,32.2,32.2,0,0,1,9-2.35Z" transform="translate(-358.54 2534.85)"/><path class="cls-2" d="M526.65-2411.45c-.08,1-.32,1.62-1.3,1.53a1.32,1.32,0,0,1-1.25-1.44c0-.7.25-1.42,1.18-1.46C526.46-2412.87,526.48-2412,526.65-2411.45Z" transform="translate(-358.54 2534.85)"/><path class="cls-4" d="M452.84-2353.59c-.23.84-.93,1-1.73.87-.53-.06-1.12-.29-1.1-.84,0-.88.94-1,1.63-1.08S452.73-2354.22,452.84-2353.59Z" transform="translate(-358.54 2534.85)"/><path class="cls-4" d="M442.5-2351.85c-.23.85-.93,1-1.72.88-.54-.07-1.13-.3-1.11-.85,0-.88.94-1,1.63-1.07S442.4-2352.47,442.5-2351.85Z" transform="translate(-358.54 2534.85)"/><path class="cls-1" d="M430.06-2322.66l-.69-.56.53-.49.68.56Z" transform="translate(-358.54 2534.85)"/><path class="cls-1" d="M428.19-2318.61l.09.64-.74-.13Z" transform="translate(-358.54 2534.85)"/><path class="cls-1" d="M430.58-2323.15c.09.15.31.37.26.45-.2.33-.5.2-.78,0Z" transform="translate(-358.54 2534.85)"/><path class="cls-1" d="M562.11-2432.13c-4.29.44-8.86-.56-13.48-.61-3.26,0-6-1.77-8.47-3.3-4.73-3-9.06-6.49-12-11.13-1.36-2.19-3.33-4-4.8-6.13-4.55-6.73-4.49-13.88-3.25-21.26.86-5.1,2.08-10.05,5.22-14.49,7.21-10.16,17-16.32,30.82-16.78,9.43-.31,18.53.8,26.73,5.09,10.8,5.66,17.66,14.06,19.26,25.35,2.3,16.27-5.66,28.78-19.26,38.52C577.24-2432.81,569.88-2431.62,562.11-2432.13Zm-39.32-35.82a20.45,20.45,0,0,0,2.56,11.83,52.94,52.94,0,0,0,7.6,10.67c4.15,4.77,9.19,9.11,16,10a88.11,88.11,0,0,0,19.55.31c8.69-.78,15-5.42,20.18-11.67,7.85-9.51,11.65-19.69,8.5-31.59a29.46,29.46,0,0,0-13-18c-10.77-6.69-22.71-8.66-35.76-5.64-10.37,2.39-17.34,8.09-21.53,16.41C524.07-2480.08,522-2474.16,522.79-2467.95Z" transform="translate(-358.54 2534.85)"/><path class="cls-1" d="M646.12-2353.06c-1.89.73-3.6.46-5.62-.85A8.87,8.87,0,0,1,646.12-2353.06Z" transform="translate(-358.54 2534.85)"/><path class="cls-1" d="M469.56-2487.13c5.08.51,13,1.66,19.07,6.82,6.57,5.58,8.11,13.37,10.16,20.85-2.11,13.4-13,28.73-34.29,27.92-17.81-.67-28-12.23-28.72-29.19C435.21-2474.41,448.32-2487.78,469.56-2487.13Zm-3.89,53.32c18.6.6,30.09-13.37,30.45-25.58.42-14.46-12.42-24.9-29.52-25-18,0-28.36,11.2-28.23,24.15C438.53-2445.59,447.74-2433.69,465.67-2433.81Z" transform="translate(-358.54 2534.85)"/><path class="cls-1" d="M433-2396.13c1.11-10.18,9.75-20.69,24.37-20.1,13.62.55,21.4,8.06,22.07,21.85.49,10.33-10.08,20-21.53,19.65C441.62-2375.26,434.28-2381.71,433-2396.13Zm24.56,19.21c11.13,0,20.35-8.12,19.91-18.38-.51-12.21-7.33-18.84-20-19.18-12-.31-23.18,8.65-23.18,17.84C434.25-2384.4,443.06-2376.94,457.51-2376.92Z" transform="translate(-358.54 2534.85)"/><path class="cls-2" d="M461-2309l-10,2.37C454-2308.45,457.51-2308.76,461-2309Z" transform="translate(-358.54 2534.85)"/><path class="cls-2" d="M448.51-2306.34c-1.47,1-2.68.53-3.83.54A5.37,5.37,0,0,1,448.51-2306.34Z" transform="translate(-358.54 2534.85)"/><path class="cls-1" d="M529.88-2404.24a2.37,2.37,0,0,1-2.67.61C527.93-2404.44,528.92-2404.29,529.88-2404.24Z" transform="translate(-358.54 2534.85)"/><path class="cls-3" d="M522.79-2467.95c-.76-6.21,1.28-12.13,4.05-17.61,4.19-8.32,11.16-14,21.53-16.41,13-3,25-1.05,35.76,5.64a29.46,29.46,0,0,1,13,18c3.15,11.9-.65,22.08-8.5,31.59-5.15,6.25-11.49,10.89-20.18,11.67a88.11,88.11,0,0,1-19.55-.31c-6.81-.94-11.85-5.28-16-10a52.94,52.94,0,0,1-7.6-10.67A20.45,20.45,0,0,1,522.79-2467.95Zm67.73-2.8c-.19-1.34.67-3.3-1.69-4.05a5,5,0,0,1-3.71-5.53c.15-2.7-1.66-4.5-2.76-6.62a2.72,2.72,0,0,0-3.05-1.13c-3.47.59-6.31-.75-7.65-3.72-1.22-2.7-4-2.18-6.28-2.66a2.61,2.61,0,0,0-2.94,1.22c-1.74,2.42-4.61,2.8-7.17.81s-5-.34-7.47.32c-2.22.6-1.6,2.06-1.45,3.54.25,2.38-3.46,4.86-5.81,4a3.23,3.23,0,0,0-4.42,1.81c-.77,1.69-3.61,3.25-.63,5.44,1.87,1.38,1.76,5.64-.19,6-4.69,1-3.32,4.1-3.45,6.69-.08,1.56.7,2.37,2.72,2.46,3.51.16,5.1,3.4,3.14,6-1.11,1.47-1.14,3,.25,4.23s2.42,3.53,5.17,2.65c4.36-1.41,5.69-.84,6.81,3.29.82,3.06,4,2.92,6.33,3.75,1.75.62,2.63-.63,3.35-2s5.19-2,6.31-.84c3.13,3.4,5.93,1,8.85,0a2,2,0,0,0,1.42-2c0-2.06,2.83-4.79,5-5,2.94-.26,5.87-2.41,6.53-4.81a2,2,0,0,0-.42-2.16c-1.22-1.28-.89-6.26.76-6.79C591-2466.8,590.49-2468.67,590.52-2470.75Z" transform="translate(-358.54 2534.85)"/><path class="cls-3" d="M465.67-2433.81c-17.93.12-27.14-11.78-27.3-26.38-.13-12.95,10.22-24.2,28.23-24.15,17.1.05,29.94,10.49,29.52,25C495.76-2447.18,484.27-2433.21,465.67-2433.81Zm-6.12-44.09c-1.59.11-3.88.24-4.41,2.2-.74,2.72-2.61,3.92-5.27,4.86-2.16.75-3.68,2.63-2.64,4.55,1.37,2.55.7,4.28-1.05,6.25a3.83,3.83,0,0,0,1.7,6c2.31.9,3.13,2.38,2.53,4.62-.74,2.76,2.06,5.59,4.76,4.67,3.08-1.05,4.79-.22,5.53,2.48.55,2,2.51,1.5,3.91,1.9a2.44,2.44,0,0,0,3-1.17c1.28-2.43,2.84-2.61,4.92-.69,1.29,1.2,2.91,1.06,4.47.36s2.61-1.56,2.41-3.36c-.27-2.39.9-3.56,3.79-3.31,2.17.19,3.08-1.48,4.05-2.85a1.67,1.67,0,0,0-.22-2.37c-2.23-2.3-2-4,.94-5.68,1.79-1.05,1-2.58,1.11-3.94.06-.87-.13-1.91-1.37-2-3.6-.23-3.57-2.37-3.3-4.75s-2.13-4.7-4.73-4.65a6,6,0,0,1-5.41-2.48A5.38,5.38,0,0,0,468-2479,16.64,16.64,0,0,1,459.55-2477.9Z" transform="translate(-358.54 2534.85)"/><path class="cls-3" d="M457.51-2376.92c-14.45,0-23.26-7.48-23.26-19.72,0-9.19,11.22-18.15,23.18-17.84,12.66.34,19.48,7,20,19.18C477.86-2385,468.64-2376.92,457.51-2376.92ZM469-2402.56c0-1.85-.92-3.24-3.58-3.16-2,.07-3.38-.43-4-2.5-.45-1.58-3.71-2.17-4.79-.9-1.39,1.65-2.5,1.57-4.3.54-2.25-1.28-4.78,0-4.91,2.35-.09,1.58-.82,2.15-2.55,2.26-2.68.18-4.36,2.08-3.47,4s.42,3.07-1,4.45-1.69,2.87.36,3.89,2.3,2.21,2.14,4.07.61,3.54,3.29,3.24a3.43,3.43,0,0,1,3.44,1.61c1.52,1.94,3.52,2.85,6,1.28a4.06,4.06,0,0,1,3.37-.22c3,.66,11.52-5.17,11.62-7.9,0-.57-.23-1.15-.25-1.72a3.88,3.88,0,0,1,1-3.22c1.56-1.59,1.15-3.26-.74-4.43C469.31-2399.77,468.46-2400.69,469-2402.56Z" transform="translate(-358.54 2534.85)"/><path class="cls-1" d="M590.52-2470.75c0,2.08.44,3.95-2.45,4.89-1.65.53-2,5.51-.76,6.79a2,2,0,0,1,.42,2.16c-.66,2.4-3.59,4.55-6.53,4.81-2.17.19-5,2.92-5,5a2,2,0,0,1-1.42,2c-2.92,1-5.72,3.44-8.85,0-1.12-1.21-5.62-.44-6.31.84s-1.6,2.6-3.35,2c-2.35-.83-5.51-.69-6.33-3.75-1.12-4.13-2.45-4.7-6.81-3.29-2.75.88-3.75-1.39-5.17-2.65s-1.36-2.76-.25-4.23c2-2.58.37-5.82-3.14-6-2-.09-2.8-.9-2.72-2.46.13-2.59-1.24-5.73,3.45-6.69,2-.4,2.06-4.66.19-6-3-2.19-.14-3.75.63-5.44a3.23,3.23,0,0,1,4.42-1.81c2.35.84,6.06-1.64,5.81-4-.15-1.48-.77-2.94,1.45-3.54,2.45-.66,4.78-2.42,7.47-.32s5.43,1.61,7.17-.81a2.61,2.61,0,0,1,2.94-1.22c2.31.48,5.06,0,6.28,2.66,1.34,3,4.18,4.31,7.65,3.72a2.72,2.72,0,0,1,3.05,1.13c1.1,2.12,2.91,3.92,2.76,6.62a5,5,0,0,0,3.71,5.53C591.19-2474,590.33-2472.09,590.52-2470.75Zm-22.58-18.81a.91.91,0,0,0-.51-1.44,1.43,1.43,0,0,0-1.94.54c-.83,1.51-2.34,1.43-3.86,1.54a16.57,16.57,0,0,0-5.63,1.14c-1.42.63-2.45.58-3-.94a1.5,1.5,0,0,0-1.94-1.09,1.43,1.43,0,0,0-1,1.9c.45,1.5-.61,2.37-1.53,3.29-1.16,1.13-2.73,2-3.54,3.33-1.21,1.91-2.42,2.21-4.25.87-.74-.54-1.42-.85-2.2,0s0,1.31.64,1.81c1.08.8,2.44,1.66,1.71,3.09-.88,1.74-.77,3.6-1.14,5.38s-.77,2.76-2.91,2.72c-.77,0-1.56.27-1.51,1.17s.86,1.06,1.63,1.08c2.05.05,3,1.25,3.76,2.74a18.66,18.66,0,0,0,1.46,3.21c1.25,1.67,2.2,3.09-.56,4.31a1.11,1.11,0,0,0-.41,1.56,1,1,0,0,0,1.3.58c3.79-1.95,6.19,1,9.11,2,1.84.68,3.21,1.64,2.65,3.72-.16.58-.2,1.25.64,1.4.47.08,1.38,0,1.45-.24,1.38-3.79,4.89-2.23,7.61-2.44,2.11-.16,4.48-1.18,6.17,1.12.48.64,1.81.23,1.79-.41-.14-3.84,4.29-4.44,6-7,1-1.61,3.72-.84,4.85-1.75,1.35-1.09-1.23-3.05,0-4.86a10.88,10.88,0,0,0,1.7-5.25c.08-1.08.18-1.89,1.67-2.4,1.93-.67,1.45-1.85,0-2.79-3.91-2.54-4.07-6.76-5.36-10.36-.54-1.51-.58-2.27-2.44-1.9a3.31,3.31,0,0,1-2.41-.6,31.8,31.8,0,0,0-6.82-3.22C568-2488,567.24-2488.44,567.94-2489.56Z" transform="translate(-358.54 2534.85)"/><path class="cls-1" d="M459.55-2477.9A16.64,16.64,0,0,0,468-2479a5.38,5.38,0,0,1,6.27,1.75,6,6,0,0,0,5.41,2.48c2.6-.05,5,2.29,4.73,4.65s-.3,4.52,3.3,4.75c1.24.08,1.43,1.12,1.37,2-.1,1.36.68,2.89-1.11,3.94-2.91,1.72-3.17,3.38-.94,5.68a1.67,1.67,0,0,1,.22,2.37c-1,1.37-1.88,3-4.05,2.85-2.89-.25-4.06.92-3.79,3.31.2,1.8-.89,2.68-2.41,3.36s-3.18.84-4.47-.36c-2.08-1.92-3.64-1.74-4.92.69a2.44,2.44,0,0,1-3,1.17c-1.4-.4-3.36.09-3.91-1.9-.74-2.7-2.45-3.53-5.53-2.48-2.7.92-5.5-1.91-4.76-4.67.6-2.24-.22-3.72-2.53-4.62a3.83,3.83,0,0,1-1.7-6c1.75-2,2.42-3.7,1.05-6.25-1-1.92.48-3.8,2.64-4.55,2.66-.94,4.53-2.14,5.27-4.86C455.67-2477.66,458-2477.79,459.55-2477.9Zm15.65,33.81c1,.08,1.21-.23,1.28-1.4.21-3.2,2.79-5.56,6.48-5.87,1.07-.09,1.94-.58,1.05-1.4-2.72-2.48-.22-4.89-.13-7.32.06-1.73,2.73-.56,2.79-1.73.09-1.68-2.84-.48-3-1.91-.34-2.71-3.83-4.55-2.53-7.68.23-.54-.15-1-.85-.87-4.11.57-6.66-1.48-8.79-4.22-.66-.85-1.3-.7-2.16-.21-2.77,1.62-6,1.73-9.06,1.5-1.47-.11-1.7.28-2.32,1.2a12.67,12.67,0,0,1-6.16,5.29c-1.63.58-1.31,1.21-1.3,2.54,0,2.73,1.38,5.88-1.89,8.1-1.07.73,0,1.14.56,1.75,2.17,2.22,5.76,3.86,4.18,7.78-.4,1,.59,1.11,1.38.92a8.3,8.3,0,0,1,6.91,1.78c2,1.55,3.14,3.3,5.43.56.21-.26,1-.16,1.56-.13C471-2445.28,473.79-2447.06,475.2-2444.09Z" transform="translate(-358.54 2534.85)"/><path class="cls-1" d="M469-2402.56c-.52,1.87.33,2.79,1.72,3.65,1.89,1.17,2.3,2.84.74,4.43a3.88,3.88,0,0,0-1,3.22c0,.57.27,1.15.25,1.72-.1,2.73-8.65,8.56-11.62,7.9a4.06,4.06,0,0,0-3.37.22c-2.48,1.57-4.48.66-6-1.28a3.43,3.43,0,0,0-3.44-1.61c-2.68.3-3.45-1.38-3.29-3.24s-.23-3.11-2.14-4.07-1.65-2.6-.36-3.89,1.78-2.63,1-4.45.79-3.83,3.47-4c1.73-.11,2.46-.68,2.55-2.26.13-2.37,2.66-3.63,4.91-2.35,1.8,1,2.91,1.11,4.3-.54,1.08-1.27,4.34-.68,4.79.9.58,2.07,1.92,2.57,4,2.5C468.06-2405.8,468.94-2404.41,469-2402.56Zm-10.22-5.27a3.3,3.3,0,0,1-3.19,1.92c-1.79.13-3.58.62-5.14-.62-1,1.41-1.59,3.09-3.28,4.05-.27.16-.51.53-.75.53-2.64-.06-2.85,1-2.35,3.1.44,1.81-2.38,4-1.89,4.83.93,1.57,3,2.94,3.11,4.77.29,4.7,6,3.4,7.89,6.21,3.82-.89,8.55.87,11.26-3.26a4,4,0,0,1,2.9-1.68c.82-.09,1.57-.32,1.17-1.28-.92-2.2-.1-4.16,1-6a1.45,1.45,0,0,0-.07-1.82c-1.22-1.94-3.37-3.47-3.18-6.08.07-1-1.15-.51-1.79-.71C462.23-2404.64,459.47-2404.79,458.76-2407.83Z" transform="translate(-358.54 2534.85)"/><path class="cls-3" d="M567.94-2489.56c-.7,1.12,0,1.52,1.09,1.85a31.8,31.8,0,0,1,6.82,3.22,3.31,3.31,0,0,0,2.41.6c1.86-.37,1.9.39,2.44,1.9,1.29,3.6,1.45,7.82,5.36,10.36,1.45.94,1.93,2.12,0,2.79-1.49.51-1.59,1.32-1.67,2.4a10.88,10.88,0,0,1-1.7,5.25c-1.2,1.81,1.38,3.77,0,4.86-1.13.91-3.8.14-4.85,1.75-1.68,2.54-6.11,3.14-6,7,0,.64-1.31,1-1.79.41-1.69-2.3-4.06-1.28-6.17-1.12-2.72.21-6.23-1.35-7.61,2.44-.07.21-1,.32-1.45.24-.84-.15-.8-.82-.64-1.4.56-2.08-.81-3-2.65-3.72-2.92-1.08-5.32-4-9.11-2a1,1,0,0,1-1.3-.58,1.11,1.11,0,0,1,.41-1.56c2.76-1.22,1.81-2.64.56-4.31a18.66,18.66,0,0,1-1.46-3.21c-.72-1.49-1.71-2.69-3.76-2.74-.77,0-1.58-.21-1.63-1.08s.74-1.19,1.51-1.17c2.14,0,2.56-1.08,2.91-2.72s.26-3.64,1.14-5.38c.73-1.43-.63-2.29-1.71-3.09-.67-.5-1.52-.86-.64-1.81s1.46-.52,2.2,0c1.83,1.34,3,1,4.25-.87.81-1.3,2.38-2.2,3.54-3.33.92-.92,2-1.79,1.53-3.29a1.43,1.43,0,0,1,1-1.9,1.5,1.5,0,0,1,1.94,1.09c.57,1.52,1.6,1.57,3,.94a16.57,16.57,0,0,1,5.63-1.14c1.52-.11,3,0,3.86-1.54a1.43,1.43,0,0,1,1.94-.54A.91.91,0,0,1,567.94-2489.56Zm13.57,20.95c1.2-9.34-9.79-17.49-19.14-17.63-10-.14-19.83,8.38-19.73,16.62.14,10.89,8.94,18.56,19.94,18.27C572.12-2451.61,581.72-2458.1,581.51-2468.61Z" transform="translate(-358.54 2534.85)"/><path class="cls-3" d="M475.2-2444.09c-1.41-3-4.24-1.19-6.59-1.32-.53,0-1.35-.13-1.56.13-2.29,2.74-3.45,1-5.43-.56a8.3,8.3,0,0,0-6.91-1.78c-.79.19-1.78.07-1.38-.92,1.58-3.92-2-5.56-4.18-7.78-.59-.61-1.63-1-.56-1.75,3.27-2.22,1.9-5.37,1.89-8.1,0-1.33-.33-2,1.3-2.54a12.67,12.67,0,0,0,6.16-5.29c.62-.92.85-1.31,2.32-1.2,3.09.23,6.29.12,9.06-1.5.86-.49,1.5-.64,2.16.21,2.13,2.74,4.68,4.79,8.79,4.22.7-.1,1.08.33.85.87-1.3,3.13,2.19,5,2.53,7.68.18,1.43,3.11.23,3,1.91-.06,1.17-2.73,0-2.79,1.73-.09,2.43-2.59,4.84.13,7.32.89.82,0,1.31-1.05,1.4-3.69.31-6.27,2.67-6.48,5.87C476.41-2444.32,476.18-2444,475.2-2444.09Zm-7.91-29.2c-8.87,0-14.63,5.31-15.12,13-.36,5.69,6.27,13.17,14.25,13.12,6.95,0,14.88-6.38,14.94-12.12C481.44-2467.3,474.63-2473.74,467.29-2473.29Z" transform="translate(-358.54 2534.85)"/><path class="cls-3" d="M458.76-2407.83c.71,3,3.47,3.19,5.73,3.92.64.2,1.86-.24,1.79.71-.19,2.61,2,4.14,3.18,6.08a1.45,1.45,0,0,1,.07,1.82c-1.14,1.88-2,3.84-1,6,.4,1-.35,1.19-1.17,1.28a4,4,0,0,0-2.9,1.68c-2.71,4.13-7.44,2.37-11.26,3.26-1.86-2.81-7.6-1.51-7.89-6.21-.11-1.83-2.18-3.2-3.11-4.77-.49-.82,2.33-3,1.89-4.83-.5-2.11-.29-3.16,2.35-3.1.24,0,.48-.37.75-.53,1.69-1,2.29-2.64,3.28-4.05,1.56,1.24,3.35.75,5.14.62A3.3,3.3,0,0,0,458.76-2407.83Zm-12.92,12.69c0,5.9,4.21,10,10.29,10.07s11-4.24,11.05-9.28c0-5.91-4.28-9.84-10.84-9.89C450.2-2404.28,445.86-2400.52,445.84-2395.14Z" transform="translate(-358.54 2534.85)"/><path class="cls-1" d="M581.51-2468.61c.21,10.51-9.39,17-18.93,17.26-11,.29-19.8-7.38-19.94-18.27-.1-8.24,9.71-16.76,19.73-16.62C571.72-2486.1,582.71-2477.95,581.51-2468.61Z" transform="translate(-358.54 2534.85)"/><path class="cls-1" d="M467.29-2473.29c7.34-.45,14.15,6,14.07,14-.06,5.74-8,12.08-14.94,12.12-8,.05-14.61-7.43-14.25-13.12C452.66-2468,458.42-2473.31,467.29-2473.29Z" transform="translate(-358.54 2534.85)"/><path class="cls-1" d="M445.84-2395.14c0-5.38,4.36-9.14,10.5-9.1,6.56,0,10.87,4,10.84,9.89,0,5-5.12,9.31-11.05,9.28S445.81-2389.24,445.84-2395.14Z" transform="translate(-358.54 2534.85)"/><path class="cls-6" d="M521-2420.34a1.16,1.16,0,0,1-.28,1,1.31,1.31,0,0,1-1,.46,1.28,1.28,0,0,1-1.05-.45,1.12,1.12,0,0,1-.25-1l.06,0a2.4,2.4,0,0,0,.55.46,1.11,1.11,0,0,0,.66.17,1.83,1.83,0,0,0,1.23-.63Z" transform="translate(-358.54 2534.85)"/><path class="cls-6" d="M531.28-2421.91a1.16,1.16,0,0,1,0,1,1.39,1.39,0,0,1-.87.7,1.34,1.34,0,0,1-1.1-.19,1.4,1.4,0,0,1-.35-.38,1.68,1.68,0,0,1-.15-.51l.05-.07a2.39,2.39,0,0,0,.65.3,1.21,1.21,0,0,0,.68,0,1.64,1.64,0,0,0,1-.92Z" transform="translate(-358.54 2534.85)"/><path class="cls-2" d="M580.81-2362.62a1.5,1.5,0,0,1,.49-1,1.71,1.71,0,0,1,1-.5,1.79,1.79,0,0,1,1.12.22,2.92,2.92,0,0,1,.44.32,2.32,2.32,0,0,1,.31.46l0,0a3.81,3.81,0,0,0-.85-.38,2.34,2.34,0,0,0-.91-.07,2.31,2.31,0,0,0-1.56.92Z" transform="translate(-358.54 2534.85)"/><path class="cls-2" d="M589.6-2364.35a1.5,1.5,0,0,1,.49-1,1.71,1.71,0,0,1,1-.5,1.79,1.79,0,0,1,1.12.22,2.92,2.92,0,0,1,.44.32,2.65,2.65,0,0,1,.31.46l0,0a3.81,3.81,0,0,0-.85-.38,2.2,2.2,0,0,0-.92-.06,2.26,2.26,0,0,0-1.55.91Z" transform="translate(-358.54 2534.85)"/><path class="cls-2" d="M652.4-2365.79a16.53,16.53,0,0,1-1.71.18,2.27,2.27,0,0,1-.86,0,1.7,1.7,0,0,1-.81-.45v-.08a1.81,1.81,0,0,1,.88-.33,2.48,2.48,0,0,1,.84.15c.56.12,1.11.26,1.67.43Z" transform="translate(-358.54 2534.85)"/><path class="cls-2" d="M643.67-2367.29c-.58.08-1.15.14-1.72.18a2.22,2.22,0,0,1-.85,0,1.77,1.77,0,0,1-.82-.45v-.09a1.76,1.76,0,0,1,.87-.32,2.23,2.23,0,0,1,.84.15c.56.11,1.12.26,1.67.42Z" transform="translate(-358.54 2534.85)"/></svg>