<svg id="Layer_1" data-name="Layer 1" xmlns="http://www.w3.org/2000/svg" xmlns:xlink="http://www.w3.org/1999/xlink" viewBox="0 0 257.24 73.51"><defs><style>.cls-1{fill:#0f172a;}.cls-2{fill:url(#linear-gradient);}.cls-3{fill:url(#linear-gradient-2);}.cls-4{fill:url(#linear-gradient-3);}.cls-5{fill:url(#linear-gradient-4);}.cls-6{fill:url(#linear-gradient-5);}.cls-7{fill:url(#linear-gradient-6);}.cls-8{fill:url(#linear-gradient-7);}</style><linearGradient id="linear-gradient" x1="155.49" y1="277.09" x2="154.95" y2="193" gradientUnits="userSpaceOnUse"><stop offset="0.44" stop-color="#49abb2"/><stop offset="1" stop-color="#0f172a"/></linearGradient><linearGradient id="linear-gradient-2" x1="173.44" y1="276.45" x2="172.9" y2="193" xlink:href="#linear-gradient"/><linearGradient id="linear-gradient-3" x1="173.49" y1="61.83" x2="173.07" y2="-2.41" xlink:href="#linear-gradient"/><linearGradient id="linear-gradient-4" x1="173.69" y1="61.31" x2="173.15" y2="-22.06" xlink:href="#linear-gradient"/><linearGradient id="linear-gradient-5" x1="212.44" y1="277.26" x2="212.02" y2="212.38" xlink:href="#linear-gradient"/><linearGradient id="linear-gradient-6" x1="252.56" y1="277" x2="252.14" y2="211.95" xlink:href="#linear-gradient"/><linearGradient id="linear-gradient-7" x1="50.73" y1="279.08" x2="12.74" y2="195.43" xlink:href="#linear-gradient"/></defs><rect class="cls-1" x="30.36" y="17.69" width="6.38" height="39.39"/><path class="cls-1" d="M67.15,231.94H60.81v39.4h6.34v-27.1a8.32,8.32,0,0,1,1.42-5.32,5.19,5.19,0,0,1,4.27-1.74,5.35,5.35,0,0,1,4.27,1.63,7.33,7.33,0,0,1,1.42,4.93v27.6h6.34V242.72q0-5.66-2.35-8.56c-1.57-1.93-3.26-2.22-6.34-2.22h-9" transform="translate(-15.38 -214.26)"/><path class="cls-1" d="M111.74,251.9a12.36,12.36,0,0,0-3.38-1.91c-1.24-.47-2.46-.88-3.68-1.24a31.31,31.31,0,0,1-3.36-1.17,6.1,6.1,0,0,1-2.46-1.82,5,5,0,0,1-.93-3.19,5.36,5.36,0,0,1,1.26-3.91,4.65,4.65,0,0,1,3.74-1.48,4.92,4.92,0,0,1,3.76,1.38,4.83,4.83,0,0,1,1.29,3.7v.16h6.08v-.12c0-3.59-1-5.65-2.86-7.53s-4.66-2.83-8.26-2.83-6.31,1-8.23,3-2.89,4.13-2.89,7.82a11.7,11.7,0,0,0,1,5.09,9.2,9.2,0,0,0,2.53,3.2,13.64,13.64,0,0,0,3.43,2c1.25.5,2.49,1,3.7,1.36a31.47,31.47,0,0,1,3.32,1.23,6.36,6.36,0,0,1,2.39,1.77,4.67,4.67,0,0,1,.9,3,3.91,3.91,0,0,1-1.48,3.43,5.72,5.72,0,0,1-4.33,1.54,5.63,5.63,0,0,1-4.36-1.6,4.27,4.27,0,0,1-1.48-3.68V260H91.32v.15c0,3.8,1,6.14,3.1,8.18s5,3.06,8.82,3.06,6.79-1,8.84-3,3.08-4.26,3.08-7.95a12.5,12.5,0,0,0-1-5.28A8.94,8.94,0,0,0,111.74,251.9Z" transform="translate(-15.38 -214.26)"/><path class="cls-1" d="M131.22,260l-7.33-28h-6.46l11.36,38.65-1.37,5.83a7.43,7.43,0,0,1-2.24,4,7,7,0,0,1-4.6,1.34h-.72v6h.72a14,14,0,0,0,7.65-1.8,8.72,8.72,0,0,0,3.7-5.41l12.41-48.62h-6.45Z" transform="translate(-15.38 -214.26)"/><path class="cls-2" d="M156.54,264.2a5.12,5.12,0,0,1-.93-3.26V216.15h-6.33V260.9c0,3.31.8,5.88,2.42,7.7a8.61,8.61,0,0,0,6.8,2.74h3v-6h-2.35A3.16,3.16,0,0,1,156.54,264.2Z" transform="translate(-15.38 -214.26)"/><path class="cls-3" d="M174.49,264.2a5.12,5.12,0,0,1-.92-3.26V216.15h-6.34V260.9q0,5,2.43,7.7a8.57,8.57,0,0,0,6.79,2.74h3v-6h-2.36A3.16,3.16,0,0,1,174.49,264.2Z" transform="translate(-15.38 -214.26)"/><rect class="cls-4" x="170.14" y="17.69" width="6.38" height="39.39"/><rect class="cls-5" x="170.14" y="1.9" width="6.38" height="6.34"/><path class="cls-6" d="M217.55,271.34h6.34v-39.4h-6.34v28.62a4.3,4.3,0,0,1-1.31,3.49,5.31,5.31,0,0,1-4,1.33,5.49,5.49,0,0,1-4-1.33,4,4,0,0,1-1.38-3.34V231.94h-6.34v28.88q0,5.35,2.37,8.22c1.58,1.91,3.86,2.3,6.85,2.3Z" transform="translate(-15.38 -214.26)"/><path class="cls-7" d="M263.28,231.94q4.64,0,7,2.9c1.57,1.94,2.35,4.11,2.35,7.88v28.62h-6.34v-27.6a7.44,7.44,0,0,0-1.4-4.93,5.36,5.36,0,0,0-4.29-1.63,4.26,4.26,0,0,0-3.76,1.76,9.5,9.5,0,0,0-1.21,5.34v27.06h-6.38v-27.6a8.24,8.24,0,0,0-1.21-4.93,4.37,4.37,0,0,0-3.76-1.63,5.19,5.19,0,0,0-4.27,1.74c-.95,1.17-1.42,3-1.42,5.36v27.06h-6.34v-39.4h31Z" transform="translate(-15.38 -214.26)"/><path class="cls-8" d="M44.82,218.38l0,4.67H40.9a31.12,31.12,0,0,0-6.54.93A15.45,15.45,0,0,0,29,226.4a10.46,10.46,0,0,0-4.67,8.34c0,.74-.07,1.47-.11,2.19s-.07,1.48-.12,2.21A11.06,11.06,0,0,1,23,243.4c-.37.74-.75,1.47-1.13,2.21l-.27.54,1.62.09a2.17,2.17,0,0,1,2,1.9l0,.61c0,.42.05.81.05,1.23l.07,7.18a4.11,4.11,0,0,0,.34,1.75,1.33,1.33,0,0,0,.89.82,2.64,2.64,0,0,0,.79.1q1.21,0,2.43.06c.81,0,1.62,0,2.43,0a11.53,11.53,0,0,1,1.78.16,2,2,0,0,1,1.56,2l.06,8.53a1.49,1.49,0,0,1,0,.26H31c0-1.3,0-2.58,0-3.87,0-.8,0-1.59,0-2.39l-1.22,0c-1,0-2-.06-3-.14a6.08,6.08,0,0,1-5.23-3.5,8.91,8.91,0,0,1-.83-4.23l0-5.86-.69,0c-.75,0-1.49,0-2.24,0a2.11,2.11,0,0,1-1.94-1.05,2.27,2.27,0,0,1-.2-2.22,49.81,49.81,0,0,1,2.72-5.23A7.09,7.09,0,0,0,19.41,239l0-.53c.06-.89.12-1.79.13-2.68a17,17,0,0,1,1.75-7.49,15.76,15.76,0,0,1,6.78-6.84,25.19,25.19,0,0,1,8.24-2.67,30.79,30.79,0,0,1,4.52-.37l.62,0Z" transform="translate(-15.38 -214.26)"/><path class="cls-1" d="M53.57,216.22a6.25,6.25,0,0,0-4.47-2h-.31A6.4,6.4,0,0,0,49,227.05h.06a6.41,6.41,0,0,0,6.28-6.29A6.32,6.32,0,0,0,53.57,216.22Z" transform="translate(-15.38 -214.26)"/></svg>