<svg id="Layer_1" data-name="Layer 1" xmlns="http://www.w3.org/2000/svg" width="26.18" height="39.84" viewBox="0 0 26.18 39.84"><path fill="#fff" d="M19.43,39.92A13.89,13.89,0,0,1,9.26,35.6,7.88,7.88,0,0,1,7,28.8a1.23,1.23,0,0,1,1.36-1.11A1.21,1.21,0,0,1,9.56,29c-.28,3.72,1.86,5.84,4.93,7.17a13.14,13.14,0,0,0,12.31-.67,9,9,0,0,0,2.41-2.1,5.39,5.39,0,0,0-.09-7.09c-.37-.44-.81-.82-1.2-1.24a1.35,1.35,0,0,1-.07-1.83,1.32,1.32,0,0,1,1.78-.13A8.93,8.93,0,0,1,33,28.67c.54,3.88-1.31,6.65-4.34,8.75C26.07,39.22,23.12,39.9,19.43,39.92Z" transform="translate(-6.91 -0.08)"/><path fill="#fff" d="M20.06,10.25a6.9,6.9,0,0,1,6.43,4.34,1.38,1.38,0,0,1-.6,2c-.78.32-1.4,0-1.81-.94a4.23,4.23,0,0,0-3.93-2.77A4,4,0,0,0,16.25,15a6.5,6.5,0,0,0-.59,2.59,10.52,10.52,0,0,1-2.46,6.3,2.19,2.19,0,0,1-.92.72,1.16,1.16,0,0,1-1.45-.47A1.32,1.32,0,0,1,11,22.45a7.68,7.68,0,0,0,2-4.36,22.05,22.05,0,0,1,.25-2.59A6.86,6.86,0,0,1,20.06,10.25Z" transform="translate(-6.91 -0.08)"/><path fill="#fff" d="M26.62,3a4.36,4.36,0,0,0-3.71,4.1c0,.3,0,.6,0,.9a1.29,1.29,0,0,1-2.57.18,5.84,5.84,0,0,1,.82-4.3A7.16,7.16,0,0,1,27,.11a2.61,2.61,0,0,1,1.4.14,1.91,1.91,0,0,1,1,1.1,6.5,6.5,0,0,1-2,5.78,1.23,1.23,0,0,1-1.81,0,1.25,1.25,0,0,1-.05-1.87A4.41,4.41,0,0,0,26.62,3Z" transform="translate(-6.91 -0.08)"/></svg>