<svg id="Layer_1" data-name="Layer 1" xmlns="http://www.w3.org/2000/svg" xmlns:xlink="http://www.w3.org/1999/xlink" viewBox="0 0 180 50.86"><defs><style>.cls-1{fill:url(#linear-gradient);}.cls-2{fill:#fffeff;}.cls-3{fill:url(#linear-gradient-2);}.cls-4{fill:url(#linear-gradient-3);}.cls-5{fill:url(#linear-gradient-4);}.cls-6{fill:url(#linear-gradient-5);}.cls-7{fill:url(#linear-gradient-6);}.cls-8{fill:url(#linear-gradient-7);}</style><linearGradient id="linear-gradient" x1="22.97" y1="44.25" x2="8.61" y2="4.07" gradientUnits="userSpaceOnUse"><stop offset="0.37" stop-color="#49abb2"/><stop offset="1" stop-color="#fff"/></linearGradient><linearGradient id="linear-gradient-2" x1="95.32" y1="52.54" x2="99.14" y2="3.85" gradientUnits="userSpaceOnUse"><stop offset="0.33" stop-color="#49abb2"/><stop offset="0.42" stop-color="#4eadb4"/><stop offset="0.52" stop-color="#5bb3ba"/><stop offset="0.62" stop-color="#72bec3"/><stop offset="0.73" stop-color="#91ccd1"/><stop offset="0.84" stop-color="#badfe2"/><stop offset="0.96" stop-color="#eaf5f6"/><stop offset="1" stop-color="#fff"/></linearGradient><linearGradient id="linear-gradient-3" x1="107.76" y1="53.52" x2="111.57" y2="4.83" xlink:href="#linear-gradient-2"/><linearGradient id="linear-gradient-4" x1="118.83" y1="54.38" x2="122.64" y2="5.69" xlink:href="#linear-gradient-2"/><linearGradient id="linear-gradient-5" x1="117.08" y1="54.25" x2="120.89" y2="5.56" xlink:href="#linear-gradient-2"/><linearGradient id="linear-gradient-6" x1="135.13" y1="55.66" x2="138.94" y2="6.97" xlink:href="#linear-gradient-2"/><linearGradient id="linear-gradient-7" x1="162.98" y1="57.84" x2="166.79" y2="9.15" xlink:href="#linear-gradient-2"/></defs><path class="cls-1" d="M15.53-2.14c.7,0,4.09,0,4.79,0a.84.84,0,0,1,.87.83.86.86,0,0,1-.93.75H15.32A12.84,12.84,0,0,0,9.84,1h0l-.24.15A11.35,11.35,0,0,0,5.72,5,12.41,12.41,0,0,0,4.05,9.37c-.07.34-.12.68-.18,1.05H6.33a2.36,2.36,0,1,1,0,4.72.78.78,0,0,1-.74-.76.77.77,0,0,1,.69-.8.94.94,0,0,0,.7-.3.76.76,0,0,0,.12-.79A.7.7,0,0,0,6.48,12c-.89,0-1.78,0-2.68,0,0,.28,0,.55,0,.81,0,.45,0,.91,0,1.35a3,3,0,0,1-.23.88c-.39,1.07-.79,2.13-1.19,3.2-.25.67-.51,1.35-.76,2a.86.86,0,0,0,0,.15h.78c.77,0,1.53,0,2.3,0a.76.76,0,0,1,.75,1c-.19.75-.37,1.5-.56,2.25,0,0,0,.08,0,.14H6.57a.76.76,0,0,1,.7.48.73.73,0,0,1-.11.81.75.75,0,0,1-.61.29H5a7,7,0,0,0,.37.82,2.2,2.2,0,0,1,.23,1.42c0,.68-.1,1.35-.13,2a.79.79,0,0,0,.84.78L8,30.29l2.9-.2A12.1,12.1,0,0,0,12.26,30a4.43,4.43,0,0,0,2.89-1.88.79.79,0,1,1,1.32.85,5.86,5.86,0,0,1-3,2.32c-.48.16-1,.26-1.5.4,0,.41.08.85.13,1.29.06.59,0,.07.06.66a.76.76,0,0,1-.69.85.78.78,0,0,1-.87-.71l-.21-2a.49.49,0,0,0,0-.11l-.94.05L6.38,32a2.35,2.35,0,0,1-2.51-2.47c0-.69.07-1.38.13-2.07a1.64,1.64,0,0,0-.2-.87c-.25-.53-.49-1.07-.74-1.6a1.13,1.13,0,0,1,0-.79c.18-.73.36-1.46.55-2.21H3.37c-.63,0-1.26,0-1.88,0A1.56,1.56,0,0,1,.11,19.81l1.75-4.66a6.66,6.66,0,0,0,.31-.85,3.38,3.38,0,0,0,.06-.9A22.91,22.91,0,0,1,2.34,10,14.79,14.79,0,0,1,4,4.85,13.32,13.32,0,0,1,6.88,1.2,14.28,14.28,0,0,1,9-.3a.06.06,0,0,0,0,0,15.9,15.9,0,0,1,6.51-1.82Z" transform="translate(0 5.43)"/><path class="cls-2" d="M21.83,34h4.45V10a3.5,3.5,0,0,0-3.5-3.5h-1Z" transform="translate(0 5.43)"/><path class="cls-2" d="M36.76,6.51H32.34V34h4.42V15.08a5.8,5.8,0,0,1,1-3.7,3.61,3.61,0,0,1,3-1.22,3.73,3.73,0,0,1,3,1.14,5.14,5.14,0,0,1,1,3.44V34h4.42V14a9.34,9.34,0,0,0-1.64-6c-1.09-1.35-2.27-1.55-4.42-1.55H36.76" transform="translate(0 5.43)"/><path class="cls-2" d="M67.84,20.43a8.53,8.53,0,0,0-2.35-1.34c-.87-.32-1.72-.61-2.57-.86a21.28,21.28,0,0,1-2.34-.82,4.21,4.21,0,0,1-1.72-1.27,3.47,3.47,0,0,1-.65-2.22,3.77,3.77,0,0,1,.88-2.73,3.29,3.29,0,0,1,2.61-1,3.42,3.42,0,0,1,2.62,1,3.35,3.35,0,0,1,.9,2.58v.1h4.24v-.08a6.59,6.59,0,0,0-2-5.25,7.89,7.89,0,0,0-5.76-2A7.63,7.63,0,0,0,56,8.58,7,7,0,0,0,54,14a8.06,8.06,0,0,0,.68,3.54,6.36,6.36,0,0,0,1.76,2.24,10,10,0,0,0,2.39,1.39c.88.35,1.74.67,2.58.95a20.6,20.6,0,0,1,2.32.86,4.4,4.4,0,0,1,1.66,1.23A3.25,3.25,0,0,1,66,26.36a2.71,2.71,0,0,1-1,2.39,4.76,4.76,0,0,1-6.06,0,3,3,0,0,1-1-2.57V26H53.61v.1a7.27,7.27,0,0,0,2.16,5.71A8.36,8.36,0,0,0,61.92,34a8.52,8.52,0,0,0,6.16-2.08,7,7,0,0,0,2.15-5.54,8.68,8.68,0,0,0-.67-3.68A6.08,6.08,0,0,0,67.84,20.43Z" transform="translate(0 5.43)"/><path class="cls-2" d="M81.42,26,77,9.12a3.49,3.49,0,0,0-3.38-2.61h-1.8l7.92,27-1,4.06a5.06,5.06,0,0,1-1.56,2.79,4.81,4.81,0,0,1-3.2.94h-.5v4.18H74a9.73,9.73,0,0,0,5.33-1.26,6,6,0,0,0,2.58-3.77l7.54-29.53a3.5,3.5,0,0,0-3.39-4.36h0Z" transform="translate(0 5.43)"/><path class="cls-3" d="M99.08,29a3.59,3.59,0,0,1-.65-2.27V-1a3.49,3.49,0,0,0-3.49-3.49H94V26.7a7.86,7.86,0,0,0,1.69,5.37A6,6,0,0,0,100.44,34h2.12V29.82h-1.64A2.19,2.19,0,0,1,99.08,29Z" transform="translate(0 5.43)"/><path class="cls-4" d="M111.59,29a3.59,3.59,0,0,1-.65-2.27V-1a3.49,3.49,0,0,0-3.49-3.49h-.92V26.7a7.81,7.81,0,0,0,1.69,5.37A6,6,0,0,0,113,34h2.11V29.82h-1.64A2.2,2.2,0,0,1,111.59,29Z" transform="translate(0 5.43)"/><path class="cls-5" d="M119.28,34h4.44V10a3.5,3.5,0,0,0-3.49-3.5h-1Z" transform="translate(0 5.43)"/><path class="cls-6" d="M119.28-.08h4.44V-1a3.49,3.49,0,0,0-3.49-3.49h-1Z" transform="translate(0 5.43)"/><path class="cls-7" d="M141.61,34H146V10a3.5,3.5,0,0,0-3.5-3.5h-.92v20a3,3,0,0,1-.91,2.44,3.76,3.76,0,0,1-2.77.92,3.85,3.85,0,0,1-2.76-.92,2.79,2.79,0,0,1-1-2.33V10a3.5,3.5,0,0,0-3.49-3.5h-.93V26.65a8.71,8.71,0,0,0,1.66,5.72c1.1,1.34,2.69,1.61,4.77,1.61Z" transform="translate(0 5.43)"/><path class="cls-8" d="M173.49,6.51a5.9,5.9,0,0,1,4.87,2A7.92,7.92,0,0,1,180,14V34h-4.42V14.74a5.19,5.19,0,0,0-1-3.44,3.72,3.72,0,0,0-3-1.14A3,3,0,0,0,169,11.39a6.65,6.65,0,0,0-.84,3.72V34H163.7V14.74a5.8,5.8,0,0,0-.84-3.44,3.06,3.06,0,0,0-2.62-1.14,3.62,3.62,0,0,0-3,1.22,5.85,5.85,0,0,0-1,3.73V34h-4.42V6.51h21.64Z" transform="translate(0 5.43)"/><path class="cls-2" d="M24-5.43a4.09,4.09,0,0,0-4,4.08,4.09,4.09,0,0,0,4.17,4.06,4.08,4.08,0,0,0,4-4A4.06,4.06,0,0,0,24-5.43Zm.1,5.9a1.83,1.83,0,0,1-1.87-1.83A1.83,1.83,0,0,1,24-3.19a1.82,1.82,0,0,1,1.85,1.84A1.83,1.83,0,0,1,24.1.47Z" transform="translate(0 5.43)"/></svg>