<svg id="Layer_1" data-name="Layer 1" xmlns="http://www.w3.org/2000/svg" viewBox="0 0 1145.05 878.18"><defs><style>.cls-1{fill:#fff;}</style></defs><path class="cls-1" d="M-2882.95,509.12c-.7-25.84-13-51.06-31.36-70a116,116,0,0,0-11.1-10.08c-2.6-2.08-5.29-4-8-5.84-2.12-1.4-4.28-2.74-6.48-4-2.41-1.38-4.87-2.66-7.37-3.81-2.33-1.09-4.69-2.08-7.1-3q-4.44-1.67-9-2.91c-1-.28-2-.54-3-.79a107,107,0,0,0-24.79-3A109.4,109.4,0,0,0-3028,412a107,107,0,0,0-22.49,11.07q-3.32,2.13-6.49,4.53a18.29,18.29,0,0,1-4.67,2.5l-.89.31c-2.67.87-5.49,1.19-7.53.47-1.8-.63-3.57-1.18-5.35-1.68-15.58-4.43-30.13-4-43.29,2.28a62.59,62.59,0,0,0-18,13.21c-10,10.31-15.44,21.66-16.82,33.75a59.34,59.34,0,0,0,1.11,19.45c.32,1.51.7,3,1.13,4.52a86.63,86.63,0,0,0,3.22,9.17c.06.13.11.25.16.38.36.9.65,1.73.68,1.81q-20.68,20.61-41.29,41.18-30.95,30.87-61.74,61.59t-61.42,61.27V433.7l2.77-.14c1.88-.1,3.81-.22,5.76-.29,1,0,2-.06,2.93-.06h84.59c3,0,6,.11,8.91-.18,11.21-1.09,17.72-7.9,17.24-17.83a18.1,18.1,0,0,0-1.46-6.42c-2.27-5.09-7.06-8.38-13.94-9.08-.84-.09-1.7-.15-2.61-.16-30.8-.27-61.6-.11-92.4-.11-4,0-7.94,0-12.83,0V324.68c0-.93,0-1.87,0-2.79a70.18,70.18,0,0,0-.2-8.34,21.61,21.61,0,0,0-.67-3.63c-.16-.57-.34-1.14-.54-1.67a16.4,16.4,0,0,0-5.7-7.69c-.42-.3-.86-.58-1.31-.85a15.33,15.33,0,0,0-2.89-1.29,14.08,14.08,0,0,0-1.57-.45c-.58-.13-1.18-.23-1.77-.31a21.64,21.64,0,0,0-3.34-.11c-7.34.38-13,4.67-14.87,11.65-.14.53-.27,1.09-.37,1.65a24.15,24.15,0,0,0-.34,3.58c0,3-.05,6-.07,8.94q-.08,8.88-.09,17.76c0,14.85,0,29.7,0,44.54v13.74h-383.38c-3.34,0-6.68-.09-10,0a31.52,31.52,0,0,0-4,.38c-9.77,1.53-15.27,7.37-15.19,16.41.07,10.09,7.15,16.61,19.42,16.86,17.82.34,35.63.09,53.42.11.89,0,1.77,0,2.66,0,.45,0,.9,0,1.35.1a16.54,16.54,0,0,1,7.24,2.38l-192.2,110.87V433.19h32.74c8.11.05,16.25.26,24.33-.23a19.83,19.83,0,0,0,12.43-4.89,15.72,15.72,0,0,0,3.4-4.54,13.19,13.19,0,0,0,.63-1.5,17.34,17.34,0,0,0,1-6.75,17,17,0,0,0-2.16-7.74c-.26-.44-.54-.87-.84-1.28-3-4.11-8.18-6.59-15-6.75-14.48-.34-29-.11-43.43-.11-4,0-8,0-13.25,0,0-.61-.07-1.2-.1-1.77-.19-2.87-.41-5.43-.51-7.91,0-1-.07-2-.07-3q0-8.62,0-17.25t0-17.25c0-11.51,0-23-.1-34.51-.09-9.11-3.06-15.29-8.38-18.24a13.84,13.84,0,0,0-1.5-.73,17.12,17.12,0,0,0-4.56-1.12c-.28,0-.56-.07-.86-.08-.56-.05-1.12-.07-1.71-.07-5.3,0-9.44,1.82-12.28,5.27s-4.37,8.56-4.43,15.24c-.1,11.32-.11,22.64-.11,33.95v0c0,11.31.05,22.62.05,33.93v13.45h-25.46c-9.15,0-18.3-.06-27.46-.09h-1.16l-8.12,0c-12.13,0-24.34-.23-36.46.31a62.5,62.5,0,0,0-14.92,2.43c-4.41,1.34-8.71,3.86-11,7.87a13.44,13.44,0,0,0,1.72,15.21c3.12,3.44,7.78,5,12.31,6,11.27,2.4,22.87,2.09,34.32,2.18q10.42.08,20.86.05c13.92,0,27.85-.11,41.77-.11h12.78V1039.5c-1,0-2,.1-3,.16-1.83.1-3.67.22-5.53.28-1,0-2,.06-3.07.06-4.63,0-9.24,0-13.86,0-9.26,0-18.49-.06-27.74-.08h-13.86c-4,0-8.07-.05-12.1-.1s-8.17-.07-12.27.09a108.79,108.79,0,0,0-17.06,1.83,48.76,48.76,0,0,0-6.27,1.73c-.15.06-.31.11-.47.19s0,0-.06,0a1.34,1.34,0,0,0-.3.12,16.6,16.6,0,0,0-7.1,5l-.09.1a12.83,12.83,0,0,0-2.59,7.75,16.78,16.78,0,0,0,.74,5,11.14,11.14,0,0,0,2.3,4.11c2.49,2.87,6.29,4.61,10,5.54.77.19,1.52.35,2.26.47a178.6,178.6,0,0,0,25.62,2c9.23.17,18.44.22,27.66.22,7.38,0,14.76,0,22.14-.07s14.75-.08,22.13-.08h13.33v45.6c0,10,0,20,0,30.06,0,18.56,4.8,26,16.65,26.19,7.07.09,11.76-2.6,14.44-8.52,1.85-4.11,2.75-9.76,2.75-17.18q0-31.17,0-62.32v-13.83h402.35l5,0h2.5c.85,0,1.68,0,2.51-.07.68,0,1.36-.07,2-.13s1.49-.17,2.2-.28,1.29-.24,1.91-.39a20.19,20.19,0,0,0,4.86-1.82l.09-.05c4.86-2.64,7.48-7.19,7.69-13.41a19.88,19.88,0,0,0-.5-5.08c-.07-.29-.14-.57-.22-.85a16.16,16.16,0,0,0-1-2.65,14.72,14.72,0,0,0-5.6-6,13.54,13.54,0,0,0-1.55-.84,20,20,0,0,0-2.24-.88,24.81,24.81,0,0,0-7.52-1.18q-10.43-.14-20.91-.17c-20.95-.08-42.28.06-65,.06a.72.72,0,0,1,.15-.11c2.39-1.89,3.89-3.19,5.19-4.18a17.21,17.21,0,0,1,1.76-1.2c13.21-7.71,26.4-15.45,39.69-23q6.65-3.8,13.33-7.49c.37-.2.77-.38,1.2-.56a14.5,14.5,0,0,1,8.16-.87,5.85,5.85,0,0,1,1.33.52,42.32,42.32,0,0,0,15,5.38,43.9,43.9,0,0,0,4.44.44h.19a53.12,53.12,0,0,0,20-3.47q36.64-13.1,73.27-26.12l1.92-.65,1.28-.41c2.41-.76,4.94-1.46,7.73-2.31v64h-7.55l-7.45,0c-4.95,0-9.86,0-14.76.08l-1.72,0c-2.44.05-4.9.08-7.33.29a35.42,35.42,0,0,0-5.28.84c-4.74,1.2-8.14,3.64-10.16,7-.21.35-.41.71-.59,1.08s-.32.72-.47,1.09a18.08,18.08,0,0,0-1,8.28,17,17,0,0,0,4.54,10.55,13.68,13.68,0,0,0,2.12,1.73,16.34,16.34,0,0,0,8.59,2.55c13.28.47,26.59.11,41.41.11v77.6c0,17,5.44,24.72,17.07,24.5a19.61,19.61,0,0,0,2.07-.14,16.89,16.89,0,0,0,1.93-.31,13.61,13.61,0,0,0,9.92-8.28c1.8-4,2.69-9.43,2.69-16.43q0-32.29,0-64.59v-12.15h48.7c9.09,0,18.18,0,27.28,0h6.81c6.82,0,13.64,0,20.45-.09,5.56,0,10-1.19,13.3-3.29a14.31,14.31,0,0,0,1.32-1c3.37-2.72,5.19-6.68,5.38-11.75.18-5.28-1.51-9.65-4.86-12.71a.05.05,0,0,0,0,0c-3.36-3.07-8.38-4.83-14.81-4.88Q-3221,1040-3233,1040c-16,0-32,0-47.92,0q-12,0-23.94,0c-2.18,0-4.34-.33-7.75-.64,0-12.18-.05-24.25,0-36.29s.09-24,.31-36a4.44,4.44,0,0,1,1.41-2.58,6.89,6.89,0,0,1,.67-.65c.2-.19.42-.37.63-.55a10.57,10.57,0,0,1,3.79-2c20.49-4.77,34.9-18,49.24-32.39,84.15-84.81,168.84-169.1,253.19-253.72a31.1,31.1,0,0,1,4.36-3.78,15.91,15.91,0,0,1,1.49-.93l.08,0a12.56,12.56,0,0,1,1.51-.66c.3-.1.6-.21.91-.28s.56-.14.84-.2a12.44,12.44,0,0,1,4.26,0l.42.07c.6.12,1.22.26,1.87.45s1.39.43,2.14.71c23.34,8.8,44.88,3.7,62.38-13.94,10.91-11,16.82-23.54,17.63-37.1a57.86,57.86,0,0,0,0-6.18,66.39,66.39,0,0,0-4.07-19.25c-.24-.66-.44-1.29-.62-1.91a14.67,14.67,0,0,1,.2-9.75,29.82,29.82,0,0,1,2.72-5.26c1.22-2,2.48-3.94,3.74-5.89,5.31-8.28,10.64-16.56,14.21-25.78A94,94,0,0,0-2882.95,509.12ZM-3539,433.61h191.86v113.2l-192.38-111.12C-3539.34,435-3539.18,434.3-3539,433.61Zm-136.68,605.89H-3867.1v-113l192,110.87C-3675.28,1038.09-3675.48,1038.8-3675.68,1039.5Zm197.36-105.36c-3.52,10.13-6.44,20.48-10.18,30.53a16.34,16.34,0,0,1-6.41,7.93c-31,18.19-62.24,36-93.35,54.07-13.13,7.64-25.83,7.14-38.9-.43q-110.65-64.15-221.49-128c-12.71-7.32-19.17-18-19.17-32.71q.11-129.13,0-258.27c0-14.76,6.71-25.3,19.4-32.6q110.4-63.49,220.59-127.3c14.36-8.34,27.69-8,41.89.28q108.66,63.17,217.65,125.75c15.1,8.64,22.26,20.6,22.05,38-.41,31.91,0,63.82-.27,95.73,0,4.1-.87,9.38-3.45,12-22.23,22.85-44.94,45.25-68.85,69.13-.36-4.57-.79-7.63-.81-10.67-.05-34.88-.16-69.77,0-104.64.14-29.76-12.29-51.84-38.34-66.65q-55.59-31.56-110.74-64c-25.75-15.12-51-15.21-76.83-.12q-55.19,32.31-110.78,63.89c-25.52,14.5-38.51,35.9-38.35,65.43q.33,65.13,0,130.25c-.14,29.55,13,50.84,38.5,65.34q55.59,31.62,110.76,63.93c25.39,14.85,50.47,15,75.88.21,37.47-21.75,75.08-43.35,115.81-66.84C-3462.6,889.67-3470.55,911.87-3478.32,934.14Zm-282.45-197.63c0-21.51.33-43-.11-64.53-.36-16.57,6.37-28.13,20.81-36.3,37.73-21.38,75.25-43.14,112.73-65,13.44-7.86,26.52-8.07,40-.27q57.72,33.48,115.53,66.81c12.37,7.14,18.42,18,18.46,32.09q.21,67.33,0,134.67c0,14.08-6.21,24.93-18.55,32.05q-58.29,33.61-116.57,67.22c-12.68,7.32-25.4,7.07-38-.25q-57.75-33.42-115.53-66.79c-12.73-7.32-18.88-18.22-18.74-33C-3760.64,781-3760.77,758.78-3760.77,736.51Zm315.14,238.07c-7.4,2-10.69-1.44-8-9.13,2.74-7.93,5.63-15.81,9-25.38,9,9.12,16.44,16.73,25,25.43C-3428.69,968.7-3437,972.26-3445.63,974.58Zm141.27-52c-.83,1.65-3.19,2.9-5.12,3.6-23,8.29-45.94,16.62-69.08,24.43-2.65.9-7.32-.24-9.4-2.2-13.42-12.78-26.68-25.76-39.21-39.37-2.41-2.6-2.9-8.84-1.68-12.53,6.51-20.07,14-39.82,20.81-59.77,2.51-7.4,4.71-13.93,14.8-12.61s20.51,2,24,14c1.55,5.26,1.59,10.94,2.06,14.44-.68,7.23-1.35,12.37-1.65,17.56-.77,13.86,7.53,21.1,21.5,19.54,8-.89,16.3-1.82,24.29-1C-3308.32,890.19-3297.9,909.66-3304.36,922.58Zm31.84-29.06c-5.34-18.1-17.72-31.28-37.63-36.81-1-1.31-2-2.62-3-3.94,3.59-1.92,7.87-3.1,10.62-5.83q67.11-66.65,133.89-133.68c2.86-2.87,6-5.77,7.92-9.21,4.14-7.23,3.34-14.44-2.75-20.3s-13.19-6.67-20.33-2.09c-3.38,2.18-6.18,5.32-9.05,8.2q-66.55,66.43-133,132.95c-2.81,2.81-5.75,5.46-9.58,9.09-6.17-20.15-18.26-33.09-35.72-38l248.43-248.2c10.2,10.31,22.89,23.11,36.83,37.21L-3112.1,609c-6.28,6.3-12.73,12.45-18.83,18.93-7.71,8.17-8.18,17.88-1.56,24.76,7.13,7.42,16.85,7.24,25.51-1.33,15.57-15.35,30.74-31.07,45.83-46.39l38.57,38.93Q-3146.79,768-3272.52,893.52Zm325.59-260.65c-10.8,10.85-26.44,10.67-38.59-1.41q-63.11-62.65-125.72-125.76c-8.93-9-10.94-20.6-6.07-30.56s13-14.89,25.17-16.72c6.17,3.63,13.43,6.14,18.34,11q62.94,62,125.11,124.84C-2936.5,606.55-2936.13,622-2946.93,632.87Zm11.7-74.78c-34.36-34.31-68.13-68-101.87-101.74,23.95-23.23,67.79-22.32,94.76,2.36A72.1,72.1,0,0,1-2935.23,558.09Z" transform="translate(4027.97 -297.53)"/></svg>