<?xml version="1.0" encoding="utf-8"?>
<!-- Generator: Adobe Illustrator 24.1.2, SVG Export Plug-In . SVG Version: 6.00 Build 0)  -->
<svg version="1.1" id="Layer_1" xmlns="http://www.w3.org/2000/svg" xmlns:xlink="http://www.w3.org/1999/xlink" x="0px" y="0px"
	 viewBox="0 0 180 50.9" style="enable-background:new 0 0 180 50.9;" xml:space="preserve">
<style type="text/css">
	.st0{fill:#FFFFFF;}
	.st1{fill:url(#SVGID_1_);}
	.st2{fill:#0F172A;}
	.st3{fill:url(#SVGID_2_);}
	.st4{fill:url(#SVGID_3_);}
	.st5{fill:url(#SVGID_4_);}
	.st6{fill:url(#SVGID_5_);}
	.st7{fill:url(#SVGID_6_);}
	.st8{fill:url(#SVGID_7_);}
	.st9{fill:url(#SVGID_8_);}
	.st10{fill:url(#SVGID_9_);}
	.st11{fill:url(#SVGID_10_);}
	.st12{fill:url(#SVGID_11_);}
	.st13{fill:url(#SVGID_12_);}
	.st14{fill:url(#SVGID_13_);}
	.st15{fill:url(#SVGID_14_);}
	.st16{fill:url(#SVGID_15_);}
	.st17{fill:url(#SVGID_16_);}
	.st18{fill:url(#SVGID_17_);}
	.st19{fill:url(#SVGID_18_);}
	.st20{fill:url(#SVGID_19_);}
	.st21{fill:url(#SVGID_20_);}
	.st22{fill:url(#SVGID_21_);}
	.st23{fill:url(#SVGID_22_);}
	.st24{fill:url(#SVGID_23_);}
	.st25{fill:url(#SVGID_24_);}
	.st26{fill:url(#SVGID_25_);}
	.st27{fill:url(#SVGID_26_);}
	.st28{fill:url(#SVGID_27_);}
	.st29{fill:url(#SVGID_28_);}
</style>
<rect x="-1824.5" y="-1026.1" class="st0" width="4056.2" height="2003.7"/>
<linearGradient id="SVGID_1_" gradientUnits="userSpaceOnUse" x1="22.9605" y1="7.7466" x2="8.6005" y2="47.9266" gradientTransform="matrix(1 0 0 -1 0 57.43)">
	<stop  offset="0.37" style="stop-color:#49ABB2"/>
	<stop  offset="1" style="stop-color:#FFFFFF"/>
</linearGradient>
<path class="st1" d="M15.5,3.3c0.7,0,4.1,0,4.8,0c0.5,0,0.9,0.3,0.9,0.8c0,0,0,0,0,0c-0.1,0.5-0.5,0.8-0.9,0.8h-4.9
	C13.4,5,11.5,5.5,9.8,6.4l0,0L9.6,6.6C8,7.5,6.7,8.8,5.7,10.4c-0.8,1.3-1.4,2.8-1.7,4.4c-0.1,0.3-0.1,0.7-0.2,1.1h2.5
	c1.3,0,2.4,1.1,2.4,2.4c0,1.3-1.1,2.4-2.4,2.4c0,0,0,0,0,0c-0.4,0-0.7-0.4-0.7-0.8c0-0.4,0.3-0.8,0.7-0.8c0.3,0,0.5-0.1,0.7-0.3
	c0.2-0.2,0.2-0.5,0.1-0.8c-0.1-0.3-0.3-0.5-0.6-0.5c-0.9,0-1.8,0-2.7,0c0,0.3,0,0.5,0,0.8c0,0.5,0,0.9,0,1.4c0,0.3-0.1,0.6-0.2,0.9
	c-0.4,1.1-0.8,2.1-1.2,3.2c-0.3,0.7-0.5,1.4-0.8,2c0,0,0,0.1,0,0.1h0.8c0.8,0,1.5,0,2.3,0c0.4,0,0.8,0.3,0.8,0.7c0,0.1,0,0.2,0,0.3
	c-0.2,0.8-0.4,1.5-0.6,2.3c0,0,0,0.1,0,0.1h1.7c0.3,0,0.6,0.2,0.7,0.5c0.1,0.3,0.1,0.6-0.1,0.8c-0.1,0.2-0.4,0.3-0.6,0.3H5
	c0.1,0.3,0.2,0.6,0.4,0.8C5.6,32,5.7,32.5,5.6,33c0,0.7-0.1,1.4-0.1,2c0,0.4,0.4,0.8,0.8,0.8c0,0,0,0,0,0L8,35.7l2.9-0.2
	c0.5,0,0.9,0,1.4-0.1c1.2-0.2,2.2-0.9,2.9-1.9c0.2-0.4,0.7-0.6,1.1-0.4c0.4,0.2,0.6,0.7,0.4,1.1c0,0.1-0.1,0.1-0.1,0.1
	c-0.7,1.1-1.8,1.9-3,2.3c-0.5,0.2-1,0.3-1.5,0.4c0,0.4,0.1,0.9,0.1,1.3c0.1,0.6,0,0.1,0.1,0.7c0.1,0.4-0.2,0.8-0.7,0.8c0,0,0,0,0,0
	c-0.4,0.1-0.8-0.3-0.9-0.7c0,0,0,0,0,0l-0.2-2c0,0,0-0.1,0-0.1l-0.9,0l-3.1,0.3c-1.3,0.1-2.4-0.9-2.5-2.2c0-0.1,0-0.2,0-0.3
	c0-0.7,0.1-1.4,0.1-2.1c0-0.3-0.1-0.6-0.2-0.9c-0.3-0.5-0.5-1.1-0.7-1.6c-0.1-0.3-0.1-0.5,0-0.8c0.2-0.7,0.4-1.5,0.5-2.2H3.4
	c-0.6,0-1.3,0-1.9,0c-0.9,0-1.5-0.7-1.5-1.6c0-0.2,0-0.4,0.1-0.6l1.8-4.7C2,20.3,2.1,20,2.2,19.7c0.1-0.3,0.1-0.6,0.1-0.9
	c0-1.1,0-2.3,0.1-3.4c0.2-1.8,0.8-3.6,1.7-5.2c0.7-1.4,1.7-2.6,2.9-3.6C7.5,6.1,8.2,5.6,9,5.1l0,0C11,4.1,13.2,3.4,15.5,3.3
	L15.5,3.3z"/>
<path class="st2" d="M21.8,39.4h4.4v-24c0-1.9-1.6-3.5-3.5-3.5h-1L21.8,39.4z"/>
<path class="st2" d="M36.8,11.9h-4.4v27.5h4.4V20.5c-0.1-1.3,0.3-2.6,1-3.7c0.8-0.9,1.9-1.3,3-1.2c1.1-0.1,2.2,0.3,3,1.1
	c0.7,1,1.1,2.2,1,3.4v19.3h4.4v-20c0.2-2.1-0.4-4.2-1.6-6c-1.1-1.4-2.3-1.6-4.4-1.6L36.8,11.9"/>
<path class="st2" d="M67.8,25.9c-0.7-0.6-1.5-1-2.3-1.3c-0.9-0.3-1.7-0.6-2.6-0.9c-0.8-0.2-1.6-0.5-2.3-0.8
	c-0.7-0.3-1.3-0.7-1.7-1.3c-0.5-0.6-0.7-1.4-0.7-2.2c-0.1-1,0.2-2,0.9-2.7c0.7-0.7,1.6-1.1,2.6-1c1-0.1,1.9,0.3,2.6,1
	c0.7,0.7,1,1.6,0.9,2.6v0.1h4.2v-0.1c0.2-2-0.6-3.9-2-5.3c-1.6-1.4-3.6-2.1-5.8-2c-2.1-0.1-4.2,0.6-5.7,2c-1.4,1.4-2.1,3.4-2,5.4
	c0,1.2,0.2,2.4,0.7,3.5c0.4,0.9,1,1.6,1.8,2.2c0.7,0.6,1.5,1,2.4,1.4c0.9,0.4,1.7,0.7,2.6,1c0.8,0.2,1.6,0.5,2.3,0.9
	c0.6,0.3,1.2,0.7,1.7,1.2c0.5,0.6,0.7,1.4,0.6,2.1c0.1,0.9-0.3,1.8-1,2.4c-1.8,1.5-4.3,1.5-6.1,0c-0.7-0.6-1.1-1.6-1-2.6v-0.2h-4.3
	v0.1c-0.2,2.1,0.6,4.2,2.2,5.7c1.7,1.5,3.9,2.3,6.1,2.2c2.2,0.1,4.5-0.6,6.2-2.1c1.5-1.4,2.3-3.5,2.2-5.5c0-1.3-0.2-2.5-0.7-3.7
	C69.2,27.2,68.6,26.5,67.8,25.9z"/>
<g>
	
		<linearGradient id="SVGID_2_" gradientUnits="userSpaceOnUse" x1="98.2726" y1="-0.7253" x2="98.2726" y2="41.4802" gradientTransform="matrix(1 0 0 -1 0 57.43)">
		<stop  offset="0.4417" style="stop-color:#49ABB2"/>
		<stop  offset="1" style="stop-color:#0F172A"/>
	</linearGradient>
	<path class="st3" d="M99.1,34.4c-0.5-0.7-0.7-1.5-0.7-2.3V0.9H94v31.2c-0.1,1.9,0.5,3.9,1.7,5.4c1.2,1.3,3,2,4.8,1.9h2.1v-4.2h-1.6
		C100.2,35.3,99.5,35,99.1,34.4z"/>
	
		<linearGradient id="SVGID_3_" gradientUnits="userSpaceOnUse" x1="110.812" y1="-0.7253" x2="110.812" y2="41.4802" gradientTransform="matrix(1 0 0 -1 0 57.43)">
		<stop  offset="0.4417" style="stop-color:#49ABB2"/>
		<stop  offset="1" style="stop-color:#0F172A"/>
	</linearGradient>
	<path class="st4" d="M111.6,34.4c-0.5-0.7-0.7-1.5-0.7-2.3V0.9h-4.4v31.2c-0.1,1.9,0.5,3.9,1.7,5.4c1.2,1.3,3,2,4.8,1.9h2.1v-4.2
		h-1.6C112.7,35.3,112,35,111.6,34.4z"/>
	
		<linearGradient id="SVGID_4_" gradientUnits="userSpaceOnUse" x1="121.475" y1="-0.7253" x2="121.475" y2="41.4802" gradientTransform="matrix(1 0 0 -1 0 57.43)">
		<stop  offset="0.4417" style="stop-color:#49ABB2"/>
		<stop  offset="1" style="stop-color:#0F172A"/>
	</linearGradient>
	<path class="st5" d="M119.3,39.4h4.4V11.9h-4.5L119.3,39.4z"/>
	
		<linearGradient id="SVGID_5_" gradientUnits="userSpaceOnUse" x1="121.475" y1="-0.7253" x2="121.475" y2="41.4802" gradientTransform="matrix(1 0 0 -1 0 57.43)">
		<stop  offset="0.4417" style="stop-color:#49ABB2"/>
		<stop  offset="1" style="stop-color:#0F172A"/>
	</linearGradient>
	<path class="st6" d="M119.3,5.3h4.4V0.9h-4.5L119.3,5.3z"/>
	
		<linearGradient id="SVGID_6_" gradientUnits="userSpaceOnUse" x1="137.8504" y1="-0.7253" x2="137.8504" y2="41.4802" gradientTransform="matrix(1 0 0 -1 0 57.43)">
		<stop  offset="0.4417" style="stop-color:#49ABB2"/>
		<stop  offset="1" style="stop-color:#0F172A"/>
	</linearGradient>
	<path class="st7" d="M141.6,39.4h4.4V11.9h-4.4v20c0.1,0.9-0.3,1.8-0.9,2.4c-0.8,0.7-1.8,1-2.8,0.9c-1,0.1-2-0.3-2.8-0.9
		c-0.7-0.6-1.1-1.4-1-2.3V11.9h-4.4v20.1c-0.1,2,0.5,4.1,1.7,5.7c1.1,1.3,2.7,1.6,4.8,1.6L141.6,39.4z"/>
	
		<linearGradient id="SVGID_7_" gradientUnits="userSpaceOnUse" x1="165.9226" y1="-0.7253" x2="165.9226" y2="41.4802" gradientTransform="matrix(1 0 0 -1 0 57.43)">
		<stop  offset="0.4417" style="stop-color:#49ABB2"/>
		<stop  offset="1" style="stop-color:#0F172A"/>
	</linearGradient>
	<path class="st8" d="M173.5,11.9c1.8-0.1,3.7,0.6,4.9,2c1.2,1.6,1.8,3.5,1.6,5.5v20h-4.4V20.2c0.1-1.2-0.3-2.4-1-3.4
		c-0.8-0.8-1.9-1.2-3-1.1c-1-0.1-2,0.4-2.6,1.2c-0.6,1.1-0.9,2.4-0.8,3.7v18.9h-4.5V20.2c0.1-1.2-0.2-2.4-0.8-3.4
		c-0.6-0.8-1.6-1.2-2.6-1.1c-1.1-0.1-2.2,0.4-3,1.2c-0.7,1.1-1.1,2.4-1,3.7v18.9h-4.4V11.9H173.5L173.5,11.9z"/>
</g>
<path class="st2" d="M24,0c-2.2,0-4,1.9-4,4.1c0,2.3,1.9,4.1,4.1,4.1c0,0,0,0,0.1,0c2.2,0,4-1.8,4-4c0-2.2-1.7-4.1-4-4.1
	C24.1,0,24.1,0,24,0z M24.1,5.9c-1,0-1.8-0.8-1.9-1.8c0,0,0,0,0,0c0-1,0.8-1.8,1.8-1.8c1,0,1.8,0.8,1.8,1.8c0,0,0,0,0,0.1
	C25.8,5.1,25.1,5.9,24.1,5.9z"/>
<path class="st2" d="M81.4,31.5L76.3,12h-4.5l7.9,27l-1,4.1c-0.3,1.2-0.8,2.2-1.6,2.8c-0.7,0.6-1.8,0.9-3.2,0.9h-0.5v4.2H74
	c2.3,0,4-0.4,5.3-1.3c1.3-0.8,2.2-2.1,2.6-3.8L90.6,12h-4.5L81.4,31.5z"/>
<linearGradient id="SVGID_8_" gradientUnits="userSpaceOnUse" x1="-479.8383" y1="-398.5247" x2="-494.1983" y2="-358.3447" gradientTransform="matrix(1 0 0 -1 0 57.43)">
	<stop  offset="0.4417" style="stop-color:#49ABB2"/>
	<stop  offset="1" style="stop-color:#0F172A"/>
</linearGradient>
<path class="st9" d="M-487.3,409.6c0.7,0,4.1,0,4.8,0c0.5,0,0.9,0.3,0.9,0.8c0,0,0,0,0,0c-0.1,0.5-0.5,0.8-0.9,0.8h-4.9
	c-1.9,0.1-3.8,0.6-5.5,1.6l0,0l-0.2,0.1c-1.6,0.9-2.9,2.3-3.9,3.9c-0.8,1.3-1.4,2.8-1.7,4.4c-0.1,0.3-0.1,0.7-0.2,1h2.5
	c1.3,0,2.4,1.1,2.4,2.4c0,1.3-1.1,2.4-2.4,2.4c0,0,0,0,0,0c-0.4,0-0.7-0.4-0.7-0.8c0-0.4,0.3-0.8,0.7-0.8c0.3,0,0.5-0.1,0.7-0.3
	c0.2-0.2,0.2-0.5,0.1-0.8c-0.1-0.3-0.3-0.5-0.6-0.5c-0.9,0-1.8,0-2.7,0c0,0.3,0,0.5,0,0.8c0,0.5,0,0.9,0,1.4c0,0.3-0.1,0.6-0.2,0.9
	c-0.4,1.1-0.8,2.1-1.2,3.2c-0.3,0.7-0.5,1.4-0.8,2c0,0,0,0.1,0,0.1h0.8c0.8,0,1.5,0,2.3,0c0.4,0,0.8,0.3,0.8,0.7c0,0.1,0,0.2,0,0.3
	c-0.2,0.8-0.4,1.5-0.6,2.3c0,0,0,0.1,0,0.1h1.7c0.3,0,0.6,0.2,0.7,0.5c0.1,0.3,0.1,0.6-0.1,0.8c-0.1,0.2-0.4,0.3-0.6,0.3h-1.6
	c0.1,0.3,0.2,0.6,0.4,0.8c0.2,0.4,0.3,0.9,0.2,1.4c0,0.7-0.1,1.4-0.1,2c0,0.4,0.4,0.8,0.8,0.8c0,0,0,0,0,0l1.7-0.1l2.9-0.2
	c0.5,0,0.9,0,1.4-0.1c1.2-0.2,2.2-0.9,2.9-1.9c0.2-0.4,0.7-0.6,1.1-0.4c0.4,0.2,0.6,0.7,0.4,1.1c0,0.1-0.1,0.1-0.1,0.1
	c-0.7,1.1-1.8,1.9-3,2.3c-0.5,0.2-1,0.3-1.5,0.4c0,0.4,0.1,0.9,0.1,1.3c0.1,0.6,0,0.1,0.1,0.7c0.1,0.4-0.2,0.8-0.7,0.8c0,0,0,0,0,0
	c-0.4,0.1-0.8-0.3-0.9-0.7c0,0,0,0,0,0l-0.2-2c0,0,0-0.1,0-0.1l-0.9,0.1l-3.1,0.3c-1.3,0.1-2.4-0.9-2.5-2.2c0-0.1,0-0.2,0-0.3
	c0-0.7,0.1-1.4,0.1-2.1c0-0.3-0.1-0.6-0.2-0.9c-0.3-0.5-0.5-1.1-0.7-1.6c-0.1-0.3-0.1-0.5,0-0.8c0.2-0.7,0.4-1.5,0.6-2.2h-0.2
	c-0.6,0-1.3,0-1.9,0c-0.9,0-1.5-0.7-1.5-1.6c0-0.2,0-0.4,0.1-0.6l1.8-4.7c0.1-0.3,0.2-0.6,0.3-0.9c0.1-0.3,0.1-0.6,0.1-0.9
	c0-1.1,0-2.3,0.1-3.4c0.2-1.8,0.8-3.6,1.7-5.1c0.7-1.4,1.7-2.6,2.9-3.7c0.7-0.6,1.4-1.1,2.1-1.5l0,0
	C-491.8,410.3-489.6,409.7-487.3,409.6L-487.3,409.6z"/>
<path class="st2" d="M-481,445.7h4.4v-27.5h-4.5L-481,445.7z"/>
<path class="st2" d="M-466,418.2h-4.4v27.5h4.4v-18.9c-0.1-1.3,0.3-2.6,1-3.7c0.8-0.9,1.9-1.3,3-1.2c1.1-0.1,2.2,0.3,3,1.1
	c0.7,1,1.1,2.2,1,3.4v19.3h4.4v-20c0.2-2.1-0.4-4.2-1.6-6c-1.1-1.4-2.3-1.6-4.4-1.6L-466,418.2"/>
<path class="st2" d="M-435,432.1c-0.7-0.6-1.5-1-2.4-1.3c-0.9-0.3-1.7-0.6-2.6-0.9c-0.8-0.2-1.6-0.5-2.3-0.8
	c-0.7-0.3-1.3-0.7-1.7-1.3c-0.5-0.6-0.7-1.4-0.7-2.2c-0.1-1,0.2-2,0.9-2.7c0.7-0.7,1.6-1.1,2.6-1c1-0.1,1.9,0.3,2.6,1
	c0.7,0.7,1,1.6,0.9,2.6v0.1h4.2v-0.1c0.2-2-0.6-3.9-2-5.3c-1.6-1.4-3.6-2.1-5.8-2c-2.1-0.1-4.2,0.6-5.7,2c-1.4,1.4-2.1,3.4-2,5.4
	c0,1.2,0.2,2.4,0.7,3.5c0.4,0.9,1,1.6,1.8,2.2c0.7,0.6,1.5,1,2.4,1.4c0.9,0.4,1.7,0.7,2.6,1c0.8,0.2,1.6,0.5,2.3,0.9
	c0.6,0.3,1.2,0.7,1.7,1.2c0.5,0.6,0.7,1.4,0.6,2.1c0.1,0.9-0.3,1.8-1,2.4c-1.8,1.5-4.3,1.5-6.1,0c-0.7-0.6-1.1-1.6-1-2.6v-0.2h-4.3
	v0.1c-0.2,2.1,0.6,4.2,2.2,5.7c1.7,1.5,3.9,2.3,6.1,2.2c2.2,0.1,4.5-0.6,6.2-2.1c1.5-1.4,2.3-3.5,2.1-5.5c0-1.3-0.2-2.5-0.7-3.7
	C-433.6,433.5-434.2,432.7-435,432.1z"/>
<g>
	
		<linearGradient id="SVGID_9_" gradientUnits="userSpaceOnUse" x1="-404.5262" y1="-406.9966" x2="-404.5262" y2="-364.7912" gradientTransform="matrix(1 0 0 -1 0 57.43)">
		<stop  offset="0.4417" style="stop-color:#49ABB2"/>
		<stop  offset="1" style="stop-color:#0F172A"/>
	</linearGradient>
	<path class="st10" d="M-403.7,440.7c-0.5-0.7-0.7-1.5-0.7-2.3v-31.2h-4.4v31.2c-0.1,1.9,0.5,3.9,1.7,5.4c1.2,1.3,3,2,4.8,1.9h2.1
		v-4.2h-1.6C-402.6,441.6-403.3,441.3-403.7,440.7z"/>
	
		<linearGradient id="SVGID_10_" gradientUnits="userSpaceOnUse" x1="-391.9868" y1="-406.9966" x2="-391.9868" y2="-364.7912" gradientTransform="matrix(1 0 0 -1 0 57.43)">
		<stop  offset="0.4417" style="stop-color:#49ABB2"/>
		<stop  offset="1" style="stop-color:#0F172A"/>
	</linearGradient>
	<path class="st11" d="M-391.2,440.7c-0.5-0.7-0.7-1.5-0.6-2.3v-31.2h-4.4v31.2c-0.1,1.9,0.5,3.9,1.7,5.4c1.2,1.3,3,2,4.8,1.9h2.1
		v-4.2h-1.6C-390.1,441.6-390.8,441.3-391.2,440.7z"/>
	
		<linearGradient id="SVGID_11_" gradientUnits="userSpaceOnUse" x1="-381.3238" y1="-406.9966" x2="-381.3238" y2="-364.7912" gradientTransform="matrix(1 0 0 -1 0 57.43)">
		<stop  offset="0.4417" style="stop-color:#49ABB2"/>
		<stop  offset="1" style="stop-color:#0F172A"/>
	</linearGradient>
	<path class="st12" d="M-383.5,445.7h4.4v-27.5h-4.5L-383.5,445.7z"/>
	
		<linearGradient id="SVGID_12_" gradientUnits="userSpaceOnUse" x1="-381.3238" y1="-406.9966" x2="-381.3238" y2="-364.7912" gradientTransform="matrix(1 0 0 -1 0 57.43)">
		<stop  offset="0.4417" style="stop-color:#49ABB2"/>
		<stop  offset="1" style="stop-color:#0F172A"/>
	</linearGradient>
	<path class="st13" d="M-383.5,411.6h4.4v-4.4h-4.5L-383.5,411.6z"/>
	
		<linearGradient id="SVGID_13_" gradientUnits="userSpaceOnUse" x1="-364.9484" y1="-406.9966" x2="-364.9484" y2="-364.7912" gradientTransform="matrix(1 0 0 -1 0 57.43)">
		<stop  offset="0.4417" style="stop-color:#49ABB2"/>
		<stop  offset="1" style="stop-color:#0F172A"/>
	</linearGradient>
	<path class="st14" d="M-361.2,445.7h4.4v-27.5h-4.4v20c0.1,0.9-0.3,1.8-0.9,2.4c-0.8,0.7-1.8,1-2.8,0.9c-1,0.1-2-0.3-2.8-0.9
		c-0.7-0.6-1.1-1.4-1-2.3v-20.1h-4.4v20.1c-0.1,2,0.5,4.1,1.7,5.7c1.1,1.3,2.7,1.6,4.8,1.6L-361.2,445.7z"/>
	
		<linearGradient id="SVGID_14_" gradientUnits="userSpaceOnUse" x1="-336.8762" y1="-406.9966" x2="-336.8762" y2="-364.7912" gradientTransform="matrix(1 0 0 -1 0 57.43)">
		<stop  offset="0.4417" style="stop-color:#49ABB2"/>
		<stop  offset="1" style="stop-color:#0F172A"/>
	</linearGradient>
	<path class="st15" d="M-329.3,418.2c1.8-0.1,3.7,0.6,4.9,2c1.2,1.6,1.8,3.5,1.6,5.5v20h-4.4v-19.3c0.1-1.2-0.3-2.4-1-3.4
		c-0.8-0.8-1.9-1.2-3-1.1c-1-0.1-2,0.4-2.6,1.2c-0.6,1.1-0.9,2.4-0.8,3.7v18.9h-4.5v-19.3c0.1-1.2-0.2-2.4-0.8-3.4
		c-0.6-0.8-1.6-1.2-2.6-1.1c-1.1-0.1-2.2,0.4-3,1.2c-0.7,1.1-1.1,2.4-1,3.7v18.9h-4.4v-27.5H-329.3L-329.3,418.2z"/>
</g>
<path class="st2" d="M-478.8,406.3c-2.2,0-4,1.9-4,4.1c0,2.3,1.9,4.1,4.1,4.1c0,0,0,0,0.1,0c2.2,0,4-1.8,4-4c0-2.2-1.7-4.1-4-4.1
	C-478.7,406.3-478.7,406.3-478.8,406.3z M-478.7,412.2c-1,0-1.8-0.8-1.9-1.8c0,0,0,0,0,0c0-1,0.8-1.8,1.8-1.8c1,0,1.8,0.8,1.8,1.8
	c0,0,0,0,0,0.1C-477,411.3-477.7,412.1-478.7,412.2z"/>
<rect x="-390.1" y="176" class="st2" width="79.9" height="71.6"/>
<rect x="-226.6" y="593.7" class="st2" width="79.9" height="71.6"/>
<path class="st2" d="M-421.4,437.8l-5.1-19.6h-4.5l7.9,27l-1,4.1c-0.3,1.2-0.8,2.2-1.6,2.8c-0.7,0.6-1.8,0.9-3.2,0.9h-0.5v4.2h0.5
	c2.3,0,4-0.4,5.3-1.3c1.3-0.8,2.2-2.1,2.6-3.8l8.7-33.9h-4.5L-421.4,437.8z"/>
<path class="st2" d="M-246,482.3h4.4v-25.2c0-1.3-1-2.3-2.3-2.3h-2.2L-246,482.3z"/>
<path class="st2" d="M-231,454.8h-4.4v27.5h4.4v-18.9c-0.1-1.3,0.3-2.6,1-3.7c0.8-0.9,1.9-1.3,3-1.2c1.1-0.1,2.2,0.3,3,1.1
	c0.7,1,1.1,2.2,1,3.4v19.3h4.4v-20c0.2-2.1-0.4-4.2-1.6-6c-1.1-1.4-2.3-1.5-4.4-1.5L-231,454.8"/>
<path class="st2" d="M-200,468.7c-0.7-0.6-1.5-1-2.3-1.3c-0.9-0.3-1.7-0.6-2.6-0.9c-0.8-0.2-1.6-0.5-2.3-0.8
	c-0.7-0.3-1.3-0.7-1.7-1.3c-0.5-0.6-0.7-1.4-0.7-2.2c-0.1-1,0.2-2,0.9-2.7c0.7-0.7,1.6-1.1,2.6-1c1-0.1,1.9,0.3,2.6,1
	c0.7,0.7,1,1.6,0.9,2.6v0.1h4.2v-0.1c0.2-2-0.6-3.9-2-5.3c-1.6-1.4-3.6-2.1-5.8-2c-2.1-0.1-4.2,0.6-5.7,2c-1.4,1.4-2.1,3.4-2,5.4
	c0,1.2,0.2,2.4,0.7,3.5c0.4,0.9,1,1.6,1.8,2.2c0.7,0.6,1.5,1,2.4,1.4c0.9,0.4,1.7,0.7,2.6,0.9c0.8,0.2,1.6,0.5,2.3,0.9
	c0.6,0.3,1.2,0.7,1.7,1.2c0.5,0.6,0.7,1.4,0.6,2.2c0.1,0.9-0.3,1.8-1,2.4c-1.8,1.5-4.3,1.5-6.1,0c-0.7-0.6-1.1-1.6-1-2.6v-0.2h-4.3
	v0.1c-0.2,2.1,0.6,4.2,2.2,5.7c1.7,1.5,3.9,2.3,6.1,2.2c2.2,0.1,4.5-0.6,6.2-2.1c1.5-1.4,2.3-3.5,2.2-5.5c0-1.3-0.2-2.5-0.7-3.7
	C-198.6,470.1-199.2,469.3-200,468.7z"/>
<linearGradient id="SVGID_15_" gradientUnits="userSpaceOnUse" x1="-169.5046" y1="489.7805" x2="-169.6317" y2="439.0945">
	<stop  offset="0.4417" style="stop-color:#49ABB2"/>
	<stop  offset="1" style="stop-color:#0F172A"/>
</linearGradient>
<path class="st16" d="M-168.7,477.3c-0.5-0.7-0.7-1.5-0.6-2.3v-31.2h-4.4V475c-0.1,1.9,0.5,3.9,1.7,5.4c1.2,1.3,3,2,4.8,1.9h2.1
	v-4.2h-1.6C-167.6,478.1-168.3,477.8-168.7,477.3z"/>
<linearGradient id="SVGID_16_" gradientUnits="userSpaceOnUse" x1="-156.9977" y1="489.7491" x2="-156.9977" y2="439.3582">
	<stop  offset="0.4417" style="stop-color:#49ABB2"/>
	<stop  offset="1" style="stop-color:#0F172A"/>
</linearGradient>
<path class="st17" d="M-156.2,477.3c-0.5-0.7-0.7-1.5-0.6-2.3v-31.2h-4.4V475c-0.1,1.9,0.5,3.9,1.7,5.4c1.2,1.3,3,2,4.8,1.9h2.1
	v-4.2h-1.6C-155.1,478.2-155.8,477.9-156.2,477.3z"/>
<linearGradient id="SVGID_17_" gradientUnits="userSpaceOnUse" x1="-146.2567" y1="489.7222" x2="-146.3552" y2="450.4284">
	<stop  offset="0.4417" style="stop-color:#49ABB2"/>
	<stop  offset="1" style="stop-color:#0F172A"/>
</linearGradient>
<path class="st18" d="M-148.5,482.3h4.4v-27.5h-4.5L-148.5,482.3z"/>
<linearGradient id="SVGID_18_" gradientUnits="userSpaceOnUse" x1="-146.2197" y1="489.7221" x2="-146.3456" y2="439.4902">
	<stop  offset="0.4417" style="stop-color:#49ABB2"/>
	<stop  offset="1" style="stop-color:#0F172A"/>
</linearGradient>
<path class="st19" d="M-148.5,448.2h4.4v-4.4h-4.5L-148.5,448.2z"/>
<linearGradient id="SVGID_19_" gradientUnits="userSpaceOnUse" x1="-129.8979" y1="489.6812" x2="-129.995" y2="450.9622">
	<stop  offset="0.4417" style="stop-color:#49ABB2"/>
	<stop  offset="1" style="stop-color:#0F172A"/>
</linearGradient>
<path class="st20" d="M-126.2,482.3h4.4v-27.5h-4.4v20c0.1,0.9-0.3,1.8-0.9,2.4c-0.8,0.7-1.8,1-2.8,0.9c-1,0.1-2-0.3-2.8-0.9
	c-0.7-0.6-1.1-1.4-1-2.3v-20.1h-4.4v20.1c-0.1,2,0.5,4.1,1.7,5.7c1.1,1.3,2.7,1.6,4.8,1.6L-126.2,482.3z"/>
<linearGradient id="SVGID_20_" gradientUnits="userSpaceOnUse" x1="-101.8429" y1="489.6109" x2="-101.9418" y2="450.1676">
	<stop  offset="0.4417" style="stop-color:#49ABB2"/>
	<stop  offset="1" style="stop-color:#0F172A"/>
</linearGradient>
<path class="st21" d="M-94.3,454.8c1.8-0.1,3.7,0.6,4.9,2c1.2,1.6,1.8,3.5,1.6,5.5v20h-4.4V463c0.1-1.2-0.3-2.4-1-3.4
	c-0.8-0.8-1.9-1.2-3-1.1c-1-0.1-2,0.4-2.6,1.2c-0.6,1.1-0.9,2.4-0.8,3.7v18.9h-4.5V463c0.1-1.2-0.2-2.4-0.8-3.4
	c-0.6-0.8-1.6-1.2-2.6-1.1c-1.1-0.1-2.2,0.4-3,1.2c-0.7,1.1-1.1,2.4-1,3.7v18.9h-4.4v-27.5H-94.3L-94.3,454.8z"/>
<path class="st2" d="M-186.4,474.4l-5.1-19.6h-4.5l7.9,27l-1,4.1c-0.3,1.2-0.8,2.2-1.6,2.8c-0.7,0.6-1.8,0.9-3.2,0.9h-0.5v4.2h0.5
	c2.3,0,4-0.4,5.3-1.3c1.3-0.8,2.2-2.1,2.6-3.8l8.7-33.9h-4.5L-186.4,474.4z"/>
<linearGradient id="SVGID_21_" gradientUnits="userSpaceOnUse" x1="-240.5578" y1="485.7417" x2="-264.1166" y2="440.5435">
	<stop  offset="0.4417" style="stop-color:#49ABB2"/>
	<stop  offset="0.9248" style="stop-color:#0F172A"/>
</linearGradient>
<path class="st22" d="M-245.6,445.4l0,3.3h-2.3l-0.4,0c-1.5,0-3,0.3-4.6,0.7c-1.5,0.4-2.7,0.9-3.8,1.7c-2.1,1.5-3.2,3.4-3.3,5.9
	c0,0.5,0,1-0.1,1.5c0,0.5-0.1,1-0.1,1.6c-0.1,1.1-0.3,2.1-0.8,3c-0.3,0.5-0.5,1-0.8,1.5l-0.2,0.4l1.1,0.1c0.6,0,1.3,0.6,1.4,1.3
	l0,0.4c0,0.3,0,0.6,0,0.9l0,5c0,0.5,0.1,0.9,0.2,1.2c0.1,0.3,0.3,0.5,0.6,0.6c0.2,0,0.4,0.1,0.5,0.1c0.6,0,1.1,0,1.7,0
	c0.6,0,1.1,0,1.7,0c0.5,0,0.9,0,1.3,0.1c0.6,0.1,1.1,0.7,1.1,1.4l0,6c0,0.1,0,0.1,0,0.2h-3.3c0-0.9,0-1.8,0-2.7c0-0.6,0-1.1,0-1.7
	c-0.3,0-0.6,0-0.9,0c-0.7,0-1.4,0-2.1-0.1c-1.7-0.1-2.9-1-3.7-2.5c-0.5-1-0.6-2-0.6-3l0-4.1l-0.5,0c-0.5,0-1,0-1.6,0
	c-0.5,0.1-1-0.3-1.4-0.7c-0.3-0.5-0.4-1.1-0.1-1.6c0.6-1.4,1.2-2.6,1.9-3.7c0.5-0.8,0.7-1.5,0.8-2.3l0-0.4c0-0.6,0.1-1.3,0.1-1.9
	c0-2,0.4-3.7,1.2-5.3c1-2,2.6-3.7,4.8-4.8c1.7-0.9,3.6-1.5,5.8-1.9c1.2-0.2,2.2-0.3,3.2-0.3l0.4,0H-245.6z"/>
<g>
	<g>
		<path class="st2" d="M-243.7,451c-1.1,0-2.1-0.4-2.9-1.2c-0.8-0.8-1.2-1.8-1.2-2.9c0-2.2,1.8-4,4-4.1h0.2c1.1,0,2.1,0.5,2.8,1.2
			c0.7,0.8,1.2,1.8,1.1,2.9C-239.7,449.2-241.4,450.9-243.7,451L-243.7,451z M-243.8,444.7c-1.2,0-2.2,1-2.2,2.3
			c0,1.3,1,2.3,2.3,2.3c1.3-0.1,2.2-1,2.2-2.2C-241.6,445.6-242.5,444.7-243.8,444.7L-243.8,444.7z"/>
		<path class="st2" d="M-243.6,443.3c1,0,1.9,0.4,2.5,1.1c0.7,0.7,1,1.6,1,2.6c0,2-1.6,3.5-3.6,3.6c-1,0-1.9-0.4-2.6-1.1
			c-0.7-0.7-1.1-1.6-1.1-2.6c0-2,1.6-3.6,3.6-3.7H-243.6 M-243.7,449.6L-243.7,449.6c1.5-0.1,2.6-1.2,2.6-2.7l0-0.1
			c0-1.5-1.2-2.6-2.7-2.6l-0.1,0c-1.5,0-2.6,1.2-2.6,2.7l0,0.1C-246.4,448.4-245.2,449.6-243.7,449.6 M-243.6,442.4h-0.2
			c-2.5,0-4.4,2-4.4,4.5c0,1.2,0.5,2.3,1.3,3.2c0.9,0.8,2,1.3,3.2,1.3h0c2.4,0,4.4-2,4.4-4.4c0-1.2-0.4-2.3-1.3-3.2
			C-241.3,442.9-242.4,442.4-243.6,442.4L-243.6,442.4z M-243.7,448.8c-1,0-1.8-0.8-1.8-1.8v0c0-1,0.8-1.8,1.8-1.8c0,0,0,0,0,0
			c1,0,1.8,0.8,1.8,1.8v0C-242,447.9-242.7,448.7-243.7,448.8C-243.7,448.8-243.7,448.8-243.7,448.8L-243.7,448.8z"/>
	</g>
</g>
<path class="st2" d="M-246,546.8h4.4v-25.2c0-1.3-1-2.3-2.3-2.3h-2.2L-246,546.8z"/>
<path class="st2" d="M-231,519.3h-4.4v27.5h4.4v-18.9c-0.1-1.3,0.3-2.6,1-3.7c0.8-0.9,1.9-1.3,3-1.2c1.1-0.1,2.2,0.3,3,1.1
	c0.7,1,1.1,2.2,1,3.4v19.3h4.4v-20c0.2-2.1-0.4-4.2-1.6-6c-1.1-1.3-2.3-1.5-4.4-1.5L-231,519.3"/>
<path class="st2" d="M-200,533.2c-0.7-0.6-1.5-1-2.3-1.3c-0.9-0.3-1.7-0.6-2.6-0.9c-0.8-0.2-1.6-0.5-2.3-0.8
	c-0.7-0.3-1.3-0.7-1.7-1.3c-0.5-0.6-0.7-1.4-0.7-2.2c-0.1-1,0.2-2,0.9-2.7c0.7-0.7,1.6-1.1,2.6-1c1-0.1,1.9,0.3,2.6,1
	c0.7,0.7,1,1.6,0.9,2.6v0.1h4.2v-0.1c0.2-2-0.6-3.9-2-5.3c-1.6-1.4-3.6-2.1-5.8-2c-2.1-0.1-4.2,0.6-5.7,2c-1.4,1.4-2.1,3.4-2,5.4
	c0,1.2,0.2,2.4,0.7,3.5c0.4,0.9,1,1.6,1.8,2.2c0.7,0.6,1.5,1,2.4,1.4c0.9,0.3,1.7,0.7,2.6,0.9c0.8,0.2,1.6,0.5,2.3,0.9
	c0.6,0.3,1.2,0.7,1.7,1.2c0.5,0.6,0.7,1.4,0.6,2.2c0.1,0.9-0.3,1.8-1,2.4c-1.8,1.5-4.3,1.5-6.1,0c-0.7-0.6-1.1-1.6-1-2.6v-0.2h-4.3
	v0.1c-0.2,2.1,0.6,4.2,2.2,5.7c1.7,1.5,3.9,2.3,6.1,2.2c2.2,0.1,4.5-0.6,6.2-2.1c1.5-1.4,2.3-3.5,2.2-5.5c0-1.3-0.2-2.5-0.7-3.7
	C-198.6,534.6-199.2,533.8-200,533.2z"/>
<linearGradient id="SVGID_22_" gradientUnits="userSpaceOnUse" x1="-169.5046" y1="554.2606" x2="-169.6317" y2="503.5746">
	<stop  offset="0.4417" style="stop-color:#49ABB2"/>
	<stop  offset="1" style="stop-color:#0F172A"/>
</linearGradient>
<path class="st23" d="M-168.7,541.8c-0.5-0.7-0.7-1.5-0.6-2.3v-31.2h-4.4v31.2c-0.1,1.9,0.5,3.9,1.7,5.4c1.2,1.3,3,2,4.8,1.9h2.1
	v-4.2h-1.6C-167.6,542.6-168.3,542.3-168.7,541.8z"/>
<linearGradient id="SVGID_23_" gradientUnits="userSpaceOnUse" x1="-156.9977" y1="554.2291" x2="-156.9977" y2="503.8383">
	<stop  offset="0.4417" style="stop-color:#49ABB2"/>
	<stop  offset="1" style="stop-color:#0F172A"/>
</linearGradient>
<path class="st24" d="M-156.2,541.8c-0.5-0.7-0.7-1.5-0.6-2.3v-31.2h-4.4v31.2c-0.1,1.9,0.5,3.9,1.7,5.4c1.2,1.3,3,2,4.8,1.9h2.1
	v-4.2h-1.6C-155.1,542.6-155.8,542.3-156.2,541.8z"/>
<linearGradient id="SVGID_24_" gradientUnits="userSpaceOnUse" x1="-146.2567" y1="554.2023" x2="-146.3552" y2="514.9084">
	<stop  offset="0.4417" style="stop-color:#49ABB2"/>
	<stop  offset="1" style="stop-color:#0F172A"/>
</linearGradient>
<path class="st25" d="M-148.5,546.8h4.4v-27.5h-4.5L-148.5,546.8z"/>
<linearGradient id="SVGID_25_" gradientUnits="userSpaceOnUse" x1="-146.2197" y1="554.2022" x2="-146.3456" y2="503.9703">
	<stop  offset="0.4417" style="stop-color:#49ABB2"/>
	<stop  offset="1" style="stop-color:#0F172A"/>
</linearGradient>
<path class="st26" d="M-148.5,512.7h4.4v-4.4h-4.5L-148.5,512.7z"/>
<linearGradient id="SVGID_26_" gradientUnits="userSpaceOnUse" x1="-129.8979" y1="554.1613" x2="-129.995" y2="515.4423">
	<stop  offset="0.4417" style="stop-color:#49ABB2"/>
	<stop  offset="1" style="stop-color:#0F172A"/>
</linearGradient>
<path class="st27" d="M-126.2,546.8h4.4v-27.5h-4.4v20c0.1,0.9-0.3,1.8-0.9,2.4c-0.8,0.7-1.8,1-2.8,0.9c-1,0.1-2-0.3-2.8-0.9
	c-0.7-0.6-1.1-1.4-1-2.3v-20.1h-4.4v20.2c-0.1,2,0.5,4.1,1.7,5.7c1.1,1.3,2.7,1.6,4.8,1.6L-126.2,546.8z"/>
<linearGradient id="SVGID_27_" gradientUnits="userSpaceOnUse" x1="-101.8429" y1="554.0909" x2="-101.9418" y2="514.6476">
	<stop  offset="0.4417" style="stop-color:#49ABB2"/>
	<stop  offset="1" style="stop-color:#0F172A"/>
</linearGradient>
<path class="st28" d="M-94.3,519.3c1.8-0.1,3.7,0.6,4.9,2c1.2,1.6,1.8,3.5,1.6,5.5v20h-4.4v-19.3c0.1-1.2-0.3-2.4-1-3.4
	c-0.8-0.8-1.9-1.2-3-1.1c-1-0.1-2,0.4-2.6,1.2c-0.6,1.1-0.9,2.4-0.8,3.7v18.9h-4.5v-19.3c0.1-1.2-0.2-2.4-0.8-3.4
	c-0.6-0.8-1.6-1.2-2.6-1.1c-1.1-0.1-2.2,0.4-3,1.2c-0.7,1.1-1.1,2.4-1,3.7v18.9h-4.4v-27.5H-94.3L-94.3,519.3z"/>
<path class="st2" d="M-186.4,538.8l-5.1-19.6h-4.5l7.9,27l-1,4.1c-0.3,1.2-0.8,2.2-1.6,2.8c-0.7,0.6-1.8,0.9-3.2,0.9h-0.5v4.2h0.5
	c2.3,0,4-0.4,5.3-1.3c1.3-0.8,2.2-2.1,2.6-3.8l8.7-33.9h-4.5L-186.4,538.8z"/>
<linearGradient id="SVGID_28_" gradientUnits="userSpaceOnUse" x1="-240.5578" y1="550.2217" x2="-258.159" y2="516.4534">
	<stop  offset="0.4417" style="stop-color:#49ABB2"/>
	<stop  offset="0.9248" style="stop-color:#0F172A"/>
</linearGradient>
<path class="st29" d="M-245.6,509.9l0,3.3h-2.3l-0.4,0c-1.5,0-3,0.3-4.6,0.7c-1.5,0.4-2.7,0.9-3.8,1.7c-2.1,1.5-3.2,3.4-3.3,5.9
	c0,0.5,0,1-0.1,1.5c0,0.5-0.1,1-0.1,1.6c-0.1,1.1-0.3,2.1-0.8,3c-0.3,0.5-0.5,1-0.8,1.5l-0.2,0.4l1.1,0.1c0.6,0,1.3,0.6,1.4,1.3
	l0,0.4c0,0.3,0,0.6,0,0.9l0,5c0,0.5,0.1,0.9,0.2,1.2c0.1,0.3,0.3,0.5,0.6,0.6c0.2,0,0.4,0.1,0.5,0.1c0.6,0,1.1,0,1.7,0
	c0.6,0,1.1,0,1.7,0c0.5,0,0.9,0,1.3,0.1c0.6,0.1,1.1,0.7,1.1,1.4l0,6c0,0.1,0,0.1,0,0.2h-3.3c0-0.9,0-1.8,0-2.7c0-0.6,0-1.1,0-1.7
	c-0.3,0-0.6,0-0.9,0c-0.7,0-1.4,0-2.1-0.1c-1.7-0.1-2.9-1-3.7-2.5c-0.5-1-0.6-2-0.6-3l0-4.1l-0.5,0c-0.5,0-1,0-1.6,0
	c-0.5,0.1-1-0.3-1.4-0.7c-0.3-0.5-0.4-1.1-0.1-1.6c0.6-1.4,1.2-2.6,1.9-3.7c0.5-0.8,0.7-1.5,0.8-2.3l0-0.4c0-0.6,0.1-1.3,0.1-1.9
	c0-2,0.4-3.7,1.2-5.3c1-2,2.6-3.7,4.8-4.8c1.7-0.9,3.6-1.5,5.8-1.9c1.2-0.2,2.2-0.3,3.2-0.3l0.4,0H-245.6z"/>
<g>
	<g>
		<path class="st2" d="M-243.7,515.5c-1.1,0-2.1-0.4-2.9-1.2c-0.8-0.8-1.2-1.8-1.2-2.9c0-2.2,1.8-4,4-4.1h0.2c1.1,0,2.1,0.5,2.8,1.2
			c0.7,0.8,1.2,1.8,1.1,2.9C-239.7,513.7-241.4,515.4-243.7,515.5L-243.7,515.5z M-243.8,509.2c-1.2,0-2.2,1-2.2,2.3
			c0,1.3,1,2.3,2.3,2.3c1.3-0.1,2.2-1,2.2-2.2C-241.6,510.1-242.5,509.2-243.8,509.2L-243.8,509.2z"/>
		<path class="st2" d="M-243.6,507.8c1,0,1.9,0.4,2.5,1.1c0.7,0.7,1,1.6,1,2.6c0,2-1.6,3.5-3.6,3.6c-1,0-1.9-0.4-2.6-1.1
			c-0.7-0.7-1.1-1.6-1.1-2.6c0-2,1.6-3.6,3.6-3.7H-243.6 M-243.7,514.1L-243.7,514.1c1.5-0.1,2.6-1.2,2.6-2.7l0-0.1
			c0-1.5-1.2-2.6-2.7-2.6l-0.1,0c-1.5,0-2.6,1.2-2.6,2.7l0,0.1C-246.4,512.9-245.2,514.1-243.7,514.1 M-243.6,506.9h-0.2
			c-2.5,0-4.4,2-4.4,4.5c0,1.2,0.5,2.3,1.3,3.2c0.9,0.8,2,1.3,3.2,1.3h0c2.4,0,4.4-2,4.4-4.4c0-1.2-0.4-2.3-1.3-3.2
			C-241.3,507.4-242.4,506.9-243.6,506.9L-243.6,506.9z M-243.7,513.2c-1,0-1.8-0.8-1.8-1.8v0c0-1,0.8-1.8,1.8-1.8c0,0,0,0,0,0
			c1,0,1.8,0.8,1.8,1.8v0C-242,512.4-242.7,513.2-243.7,513.2C-243.7,513.2-243.7,513.2-243.7,513.2L-243.7,513.2z"/>
	</g>
</g>
<text transform="matrix(1 0 0 1 -56.8186 482.2858)" style="font-family:'AlexBrush-Regular'; font-size:55.9382px;">1</text>
<text transform="matrix(1 0 0 1 -63.475 544.7913)" style="font-family:'AlexBrush-Regular'; font-size:55.9382px;">2</text>
</svg>
