<svg id="Layer_1" data-name="Layer 1" xmlns="http://www.w3.org/2000/svg" width="35" height="45" viewBox="0 0 27.18 42.34"><defs><style>.cls-1{fill:#fff;}</style></defs><path class="cls-1" d="M-134.35,96.56a9.33,9.33,0,0,0-3.54-5.9,1.71,1.71,0,0,0-1.12-.41,1.84,1.84,0,0,0-1.34.58,1.86,1.86,0,0,0,.06,2.52l.47.47a9.88,9.88,0,0,1,.71.74A4.88,4.88,0,0,1-139,101a8.36,8.36,0,0,1-2.27,2,12.82,12.82,0,0,1-6.47,1.82,13.6,13.6,0,0,1-5.39-1.18c-3.39-1.46-4.86-3.59-4.63-6.68a1.65,1.65,0,0,0-.4-1.21,1.81,1.81,0,0,0-1.27-.59h-.11a1.72,1.72,0,0,0-1.77,1.54,8.39,8.39,0,0,0,2.38,7.21,14.27,14.27,0,0,0,10.53,4.48h0c4,0,7-.82,9.51-2.58C-135.31,103.32-133.83,100.29-134.35,96.56Z" transform="translate(161.43 -66.04)"/><path class="cls-1" d="M-156,93.19a2,2,0,0,0,.63-.11,2.69,2.69,0,0,0,1.14-.88,10.91,10.91,0,0,0,2.57-6.59,6.15,6.15,0,0,1,.55-2.39,3.41,3.41,0,0,1,3.24-1.92h.19a3.76,3.76,0,0,1,3.49,2.47c.49,1.13,1.2,1.36,1.71,1.36a2.09,2.09,0,0,0,.75-.15,1.88,1.88,0,0,0,.88-2.61,7.43,7.43,0,0,0-6.68-4.66h-.56a7.38,7.38,0,0,0-7,5.62,8.35,8.35,0,0,0-.19,1.7c0,.32,0,.65-.07,1a7.28,7.28,0,0,1-1.86,4.08,1.83,1.83,0,0,0-.24,2.32A1.63,1.63,0,0,0-156,93.19Z" transform="translate(161.43 -66.04)"/><path class="cls-1" d="M-146.19,76.16h.17a1.76,1.76,0,0,0,1.62-1.73c0-.17,0-.35,0-.52s0-.26,0-.39c0-1.49,2.52-3.41,2.52-3.41s-.09.46-.1.61a1.78,1.78,0,0,1-.21.77,2.94,2.94,0,0,0-.56,1.72,1.82,1.82,0,0,0,.58,1,1.75,1.75,0,0,0,1.22.51,1.77,1.77,0,0,0,1.28-.57c1.8-1.79,2.06-4.09,1.7-6.41a2.3,2.3,0,0,0-1.2-1.47,2.14,2.14,0,0,0-1.08-.23c-.2,0-.4,0-.59,0a7.63,7.63,0,0,0-6.2,4,6.26,6.26,0,0,0-.88,4.67A1.78,1.78,0,0,0-146.19,76.16Z" transform="translate(161.43 -66.04)"/></svg>