<svg id="Layer_1" data-name="Layer 1" xmlns="http://www.w3.org/2000/svg" width="25.72" height="39.67" viewBox="0 0 25.72 39.67"><path fill="#fff" d="M32.86,15.36V25c0,1.3-.5,1.95-1.49,1.94s-1.45-.63-1.45-2c0-6.24,0-12.49,0-18.73a4.38,4.38,0,0,0-.61-2.14A3.25,3.25,0,0,0,26,3.24a1.2,1.2,0,0,0-.48.65,1.87,1.87,0,0,1-2,1.25c-2.47-.06-4.94,0-7.41,0a1.59,1.59,0,0,1-1.46-.83c-.24-.39-.53-1-.82-1a6.56,6.56,0,0,0-2.62.37A2.32,2.32,0,0,0,10.08,6c0,2,0,4.08,0,6.13a1.37,1.37,0,0,1-1.31,1.41,1.45,1.45,0,0,1-1.52-1,2.66,2.66,0,0,1-.08-.75V5.69A5.38,5.38,0,0,1,12.4.22Q20,.12,27.56.21a5.39,5.39,0,0,1,5.3,5.53Z" transform="translate(-7.14 -0.16)"/><path fill="#fff" d="M7.14,26.26V18c0-1.1.58-1.77,1.51-1.75s1.42.64,1.42,1.74c0,5.22,0,10.44,0,15.66,0,2.29.85,3.16,3.1,3.16H27c2,0,2.94-.93,3-3,0-1.14,0-2.27,0-3.41s.5-1.67,1.46-1.67,1.48.59,1.46,1.67a34.06,34.06,0,0,1-.19,5.16,5.16,5.16,0,0,1-5.17,4.21c-5,0-10,.05-15,0a5.41,5.41,0,0,1-5.37-5.54Z" transform="translate(-7.14 -0.16)"/></svg>