<svg id="visual" viewBox="0 0 1920 1080" width="1920" height="1080" xmlns="http://www.w3.org/2000/svg" xmlns:xlink="http://www.w3.org/1999/xlink" version="1.1"><rect x="0" y="0" width="1920" height="1080" fill="#fff"></rect><path d="M0 369L64 391.5C128 414 256 459 384 505.5C512 552 640 600 768 588.5C896 577 1024 506 1152 483C1280 460 1408 485 1536 459.8C1664 434.7 1792 359.3 1856 321.7L1920 284L1920 0L1856 0C1792 0 1664 0 1536 0C1408 0 1280 0 1152 0C1024 0 896 0 768 0C640 0 512 0 384 0C256 0 128 0 64 0L0 0Z" fill="#0f172a" stroke-linecap="round" stroke-linejoin="miter"></path></svg>