<svg id="Layer_1" data-name="Layer 1" xmlns="http://www.w3.org/2000/svg" width="29.05" height="39.67" viewBox="0 0 29.05 39.67"><path fill="#fff" d="M21.18,3v9.13c.24,0,.47,0,.7,0h4.83a4.6,4.6,0,0,0,4.2-6.49c-.18-.4-.44-.93-.31-1.25a2.15,2.15,0,0,1,1.09-1.09c.62-.25,1.15.15,1.5.73a7.16,7.16,0,0,1-.7,8,24.35,24.35,0,0,1-2.35,2.18,7.28,7.28,0,0,1,4.22,5.28,7.1,7.1,0,0,1-1.37,6,1.39,1.39,0,1,1-2.22-1.63A4.61,4.61,0,0,0,26,16.5a4.63,4.63,0,0,0-3.4,5,4.56,4.56,0,0,0,4.29,4c1.36.1,2,1,1.56,2a1.47,1.47,0,0,1-1.65.81,7.14,7.14,0,0,1-4.9-2.44l-.71-.77c0,.62,0,1.05,0,1.49A61.57,61.57,0,0,1,21,33.4a7.62,7.62,0,0,1-7.75,6.43,7.89,7.89,0,0,1-7.66-6.7,7.69,7.69,0,0,1,5.87-8.55,17.93,17.93,0,0,1,3.27-.4c1.2-.06,2.41,0,3.65,0V15.09a43.68,43.68,0,0,0-6.58.06,4.47,4.47,0,0,0-3.12,6.3c.08.17.17.33.25.49a1.4,1.4,0,0,1-.53,1.92,1.42,1.42,0,0,1-1.9-.61,7,7,0,0,1,.46-7.88c.52-.66,1.14-1.23,1.74-1.87A7.84,7.84,0,0,1,5.91,9.94,7.33,7.33,0,0,1,12.81.21c4.55-.09,9.1,0,13.64,0,1,0,1.67.58,1.65,1.42S27.43,3,26.4,3ZM18.3,27c-1.63,0-3.24,0-4.85,0a5.07,5.07,0,0,0-.61,10.12A4.92,4.92,0,0,0,18.26,33,57,57,0,0,0,18.3,27ZM18.37,3H12.82A4.56,4.56,0,0,0,8.31,6.87C8,9.36,9.37,11.65,11.73,12a48.93,48.93,0,0,0,6.64.06Zm2.81,13.5L22.78,15h-1.6Z" transform="translate(-5.48 -0.16)"/></svg>